<?xml version="1.0" encoding="utf-8"?>
<!-- Generator: Adobe Illustrator 16.0.0, SVG Export Plug-In . SVG Version: 6.00 Build 0)  -->
<!DOCTYPE svg PUBLIC "-//W3C//DTD SVG 1.1//EN" "http://www.w3.org/Graphics/SVG/1.1/DTD/svg11.dtd">
<svg version="1.1" id="Layer_1" xmlns="http://www.w3.org/2000/svg" xmlns:xlink="http://www.w3.org/1999/xlink" x="0px" y="0px"
	 width="1920px" height="810px" viewBox="0 0 1920 810" enable-background="new 0 0 1920 810" xml:space="preserve">
<g>
	<defs>
		<rect id="SVGID_1_" width="1920" height="810"/>
	</defs>
	<clipPath id="SVGID_2_">
		<use xlink:href="#SVGID_1_"  overflow="visible"/>
	</clipPath>
	<g clip-path="url(#SVGID_2_)">
		<g>
			<defs>
				<path id="SVGID_3_" d="M1082.112-1.402L-124.476,1205.187v31.365h310.62L1253.104,169.59
					c47.216-47.217,47.216-123.771,0-170.992c-23.61-23.611-54.552-35.413-85.495-35.413
					C1136.662-36.814,1105.723-25.013,1082.112-1.402"/>
			</defs>
			<clipPath id="SVGID_4_">
				<use xlink:href="#SVGID_3_"  overflow="visible"/>
			</clipPath>
			
				<linearGradient id="SVGID_5_" gradientUnits="userSpaceOnUse" x1="-601.0645" y1="1545.9805" x2="-599.2428" y2="1545.9805" gradientTransform="matrix(-994.3273 994.3273 994.3273 994.3273 -2133688 -939546)">
				<stop  offset="0" style="stop-color:#C3D8EE"/>
				<stop  offset="0.279" style="stop-color:#C5D6ED"/>
				<stop  offset="0.5038" style="stop-color:#CCD1E7"/>
				<stop  offset="0.7098" style="stop-color:#D6C8DE"/>
				<stop  offset="0.9034" style="stop-color:#E4BBD2"/>
				<stop  offset="1" style="stop-color:#EBB3CB"/>
			</linearGradient>
			<polygon clip-path="url(#SVGID_4_)" fill="url(#SVGID_5_)" points="1937.007,599.868 587.922,1948.952 -761.161,599.868 
				587.922,-749.214 			"/>
		</g>
		<g>
			<defs>
				<path id="SVGID_6_" d="M58.943,1.122l-183.419,183.419v341.982l354.41-354.411c47.22-47.222,47.22-123.775,0-170.99
					c-23.61-23.612-54.552-35.417-85.496-35.417C113.497-34.295,82.554-22.49,58.943,1.122"/>
			</defs>
			<clipPath id="SVGID_7_">
				<use xlink:href="#SVGID_6_"  overflow="visible"/>
			</clipPath>
			
				<linearGradient id="SVGID_8_" gradientUnits="userSpaceOnUse" x1="-601.9717" y1="1546.1738" x2="-600.15" y2="1546.1738" gradientTransform="matrix(994.3273 -994.3273 -994.3273 -994.3273 2134419 940708)">
				<stop  offset="0" style="stop-color:#C3D8EE"/>
				<stop  offset="0.279" style="stop-color:#C5D6ED"/>
				<stop  offset="0.5038" style="stop-color:#CCD1E7"/>
				<stop  offset="0.7098" style="stop-color:#D6C8DE"/>
				<stop  offset="0.9034" style="stop-color:#E4BBD2"/>
				<stop  offset="1" style="stop-color:#EBB3CB"/>
			</linearGradient>
			<polygon clip-path="url(#SVGID_7_)" fill="url(#SVGID_8_)" points="-404.887,246.115 76.338,-235.111 557.562,246.113 
				76.337,727.336 			"/>
		</g>
		<g>
			<defs>
				<rect id="SVGID_9_" x="-124.476" y="-53.887" width="2044.476" height="1290.438"/>
			</defs>
			<clipPath id="SVGID_10_">
				<use xlink:href="#SVGID_9_"  overflow="visible"/>
			</clipPath>
			<path clip-path="url(#SVGID_10_)" fill="#EBB3CB" d="M626.834,1136.218c-47.219-47.215-47.219-123.771,0-170.99l3.239-3.242
				c47.216-47.219,123.778-47.219,170.993,0c47.217,47.218,47.217,123.773,0,170.994l-3.242,3.238
				c-23.61,23.612-54.552,35.411-85.495,35.411S650.444,1159.83,626.834,1136.218"/>
		</g>
		<g>
			<defs>
				<path id="SVGID_11_" d="M1591.71-1.311L879.267,711.13c-47.22,47.222-47.22,123.776,0,170.993
					c47.223,47.22,123.771,47.22,170.99,0l712.444-712.442c47.219-47.217,47.219-123.771,0-170.992
					c-23.608-23.61-54.552-35.413-85.499-35.413C1646.26-36.724,1615.317-24.921,1591.71-1.311"/>
			</defs>
			<clipPath id="SVGID_12_">
				<use xlink:href="#SVGID_11_"  overflow="visible"/>
			</clipPath>
			
				<linearGradient id="SVGID_13_" gradientUnits="userSpaceOnUse" x1="-601.4082" y1="1546.2734" x2="-599.5864" y2="1546.2734" gradientTransform="matrix(-478.3891 478.3891 478.3891 478.3891 -1025669.5 -452003.5)">
				<stop  offset="0" style="stop-color:#C3D8EE"/>
				<stop  offset="0.279" style="stop-color:#C5D6ED"/>
				<stop  offset="0.5038" style="stop-color:#CCD1E7"/>
				<stop  offset="0.7098" style="stop-color:#D6C8DE"/>
				<stop  offset="0.9034" style="stop-color:#E4BBD2"/>
				<stop  offset="1" style="stop-color:#EBB3CB"/>
			</linearGradient>
			<polygon clip-path="url(#SVGID_12_)" fill="url(#SVGID_13_)" points="2292.952,446.311 1320.981,1418.277 349.013,446.311 
				1320.981,-525.658 			"/>
		</g>
		<g>
			<defs>
				<path id="SVGID_14_" d="M-124.476,1034.413l69.921-69.918c47.219-47.221,47.219-123.774,0-170.993
					c-19.638-19.636-44.354-31.108-69.921-34.411V1034.413z"/>
			</defs>
			<clipPath id="SVGID_15_">
				<use xlink:href="#SVGID_14_"  overflow="visible"/>
			</clipPath>
			
				<linearGradient id="SVGID_16_" gradientUnits="userSpaceOnUse" x1="-602.2144" y1="1546.0576" x2="-600.3945" y2="1546.0576" gradientTransform="matrix(994.3273 -994.3273 -994.3273 -994.3273 2134263 941143)">
				<stop  offset="0" style="stop-color:#C3D8EE"/>
				<stop  offset="0.279" style="stop-color:#C5D6ED"/>
				<stop  offset="0.5038" style="stop-color:#CCD1E7"/>
				<stop  offset="0.7098" style="stop-color:#D6C8DE"/>
				<stop  offset="0.9034" style="stop-color:#E4BBD2"/>
				<stop  offset="1" style="stop-color:#EBB3CB"/>
			</linearGradient>
			<polygon clip-path="url(#SVGID_15_)" fill="url(#SVGID_16_)" points="-262.139,896.754 -65.906,700.521 130.326,896.754 
				-65.906,1092.982 			"/>
		</g>
		<g>
			<defs>
				<rect id="SVGID_17_" x="-124.476" y="-53.887" width="2044.476" height="1290.438"/>
			</defs>
			<clipPath id="SVGID_18_">
				<use xlink:href="#SVGID_17_"  overflow="visible"/>
			</clipPath>
			<path clip-path="url(#SVGID_18_)" fill="#EBB3CB" d="M39.911,703.458c-47.219-47.211-47.219-123.768,0-170.987l3.24-3.243
				c47.215-47.222,123.775-47.222,170.992,0c47.218,47.221,47.218,123.771,0,170.993l-3.241,3.237
				c-23.61,23.61-54.555,35.416-85.496,35.416C94.465,738.874,63.521,727.068,39.911,703.458"/>
		</g>
		<g>
			<defs>
				<path id="SVGID_19_" d="M568.419-1.007L276.723,290.689c-47.215,47.216-47.215,123.771,0,170.99
					c23.611,23.609,54.553,35.413,85.497,35.413c30.946,0,61.886-11.804,85.497-35.413l291.695-291.696
					c47.218-47.221,47.218-123.776,0-170.99c-23.609-23.611-54.554-35.416-85.496-35.416
					C622.975-36.423,592.033-24.618,568.419-1.007"/>
			</defs>
			<clipPath id="SVGID_20_">
				<use xlink:href="#SVGID_19_"  overflow="visible"/>
			</clipPath>
			
				<linearGradient id="SVGID_21_" gradientUnits="userSpaceOnUse" x1="-601.1685" y1="1545.7246" x2="-599.3468" y2="1545.7246" gradientTransform="matrix(-375.3392 383.634 383.634 375.3392 -817689.625 -349759)">
				<stop  offset="0" style="stop-color:#C3D8EE"/>
				<stop  offset="0.279" style="stop-color:#C5D6ED"/>
				<stop  offset="0.5038" style="stop-color:#CCD1E7"/>
				<stop  offset="0.7098" style="stop-color:#D6C8DE"/>
				<stop  offset="0.9034" style="stop-color:#E4BBD2"/>
				<stop  offset="1" style="stop-color:#EBB3CB"/>
			</linearGradient>
			<polygon clip-path="url(#SVGID_20_)" fill="url(#SVGID_21_)" points="1053.323,224.505 514.157,775.589 -37.187,236.165 
				501.981,-314.917 			"/>
		</g>
		<g>
			<defs>
				<polygon id="SVGID_22_" points="1373.727,1236.552 1708.312,1236.552 1920,1024.864 1920,690.281 				"/>
			</defs>
			<clipPath id="SVGID_23_">
				<use xlink:href="#SVGID_22_"  overflow="visible"/>
			</clipPath>
			
				<linearGradient id="SVGID_24_" gradientUnits="userSpaceOnUse" x1="-601.5659" y1="1546.2734" x2="-599.7455" y2="1546.2734" gradientTransform="matrix(-994.3273 994.3273 994.3273 994.3273 -2132660.75 -939735)">
				<stop  offset="0" style="stop-color:#C3D8EE"/>
				<stop  offset="0.279" style="stop-color:#C5D6ED"/>
				<stop  offset="0.5038" style="stop-color:#CCD1E7"/>
				<stop  offset="0.7098" style="stop-color:#D6C8DE"/>
				<stop  offset="0.9034" style="stop-color:#E4BBD2"/>
				<stop  offset="1" style="stop-color:#EBB3CB"/>
			</linearGradient>
			<polygon clip-path="url(#SVGID_23_)" fill="url(#SVGID_24_)" points="2193.139,963.415 1646.865,1509.687 1100.593,963.415 
				1646.865,417.145 			"/>
		</g>
		<g>
			<defs>
				<path id="SVGID_25_" d="M1321.848,783.057l-453.495,453.495h341.981l282.504-282.506c47.218-47.218,47.218-123.772,0-170.989
					c-23.609-23.609-54.552-35.416-85.495-35.416S1345.457,759.447,1321.848,783.057"/>
			</defs>
			<clipPath id="SVGID_26_">
				<use xlink:href="#SVGID_25_"  overflow="visible"/>
			</clipPath>
			
				<linearGradient id="SVGID_27_" gradientUnits="userSpaceOnUse" x1="-601.8638" y1="1545.7949" x2="-600.0406" y2="1545.7949" gradientTransform="matrix(994.3273 -994.3273 -994.3273 -994.3273 2135112.5 941137)">
				<stop  offset="0" style="stop-color:#C3D8EE"/>
				<stop  offset="0.279" style="stop-color:#C5D6ED"/>
				<stop  offset="0.5038" style="stop-color:#CCD1E7"/>
				<stop  offset="0.7098" style="stop-color:#D6C8DE"/>
				<stop  offset="0.9034" style="stop-color:#E4BBD2"/>
				<stop  offset="1" style="stop-color:#EBB3CB"/>
			</linearGradient>
			<polygon clip-path="url(#SVGID_26_)" fill="url(#SVGID_27_)" points="623.897,992.095 1204.203,411.792 1784.512,992.095 
				1204.206,1572.405 			"/>
		</g>
		<g>
			<defs>
				<rect id="SVGID_28_" x="-124.476" y="-53.887" width="2044.476" height="1290.438"/>
			</defs>
			<clipPath id="SVGID_29_">
				<use xlink:href="#SVGID_28_"  overflow="visible"/>
			</clipPath>
			<path clip-path="url(#SVGID_29_)" fill="#EBB3CB" d="M1589.072,691.243c-47.219-47.21-47.219-123.768,0-170.987l3.242-3.24
				c47.213-47.221,123.775-47.221,170.991,0c47.217,47.216,47.217,123.769,0,170.992l-3.242,3.235
				c-23.607,23.61-54.552,35.418-85.494,35.418C1643.626,726.661,1612.682,714.854,1589.072,691.243"/>
		</g>
		<g>
			<defs>
				<path id="SVGID_30_" d="M1851.049,254.067c-47.217,47.222-47.217,123.778,0,170.994c19.389,19.389,43.732,30.815,68.951,34.281
					V185.114L1851.049,254.067z"/>
			</defs>
			<clipPath id="SVGID_31_">
				<use xlink:href="#SVGID_30_"  overflow="visible"/>
			</clipPath>
			
				<linearGradient id="SVGID_32_" gradientUnits="userSpaceOnUse" x1="-601.9438" y1="1546.1992" x2="-600.1248" y2="1546.1992" gradientTransform="matrix(-994.3273 994.3273 994.3273 994.3273 -2132339.25 -940332)">
				<stop  offset="0" style="stop-color:#C3D8EE"/>
				<stop  offset="0.279" style="stop-color:#C5D6ED"/>
				<stop  offset="0.5038" style="stop-color:#CCD1E7"/>
				<stop  offset="0.7098" style="stop-color:#D6C8DE"/>
				<stop  offset="0.9034" style="stop-color:#E4BBD2"/>
				<stop  offset="1" style="stop-color:#EBB3CB"/>
			</linearGradient>
			<polygon clip-path="url(#SVGID_31_)" fill="url(#SVGID_32_)" points="2057.117,322.229 1861.916,517.428 1666.717,322.229 
				1861.916,127.03 			"/>
		</g>
	</g>
</g>
</svg>
