<svg xmlns="http://www.w3.org/2000/svg" width="17" height="17.531" viewBox="0 0 17 17.531">
  <metadata><?xpacket begin="﻿" id="W5M0MpCehiHzreSzNTczkc9d"?>
<x:xmpmeta xmlns:x="adobe:ns:meta/" x:xmptk="Adobe XMP Core 5.6-c142 79.160924, 2017/07/13-01:06:39        ">
   <rdf:RDF xmlns:rdf="http://www.w3.org/1999/02/22-rdf-syntax-ns#">
      <rdf:Description rdf:about=""/>
   </rdf:RDF>
</x:xmpmeta>
                                                                                                    
                                                                                                    
                                                                                                    
                                                                                                    
                                                                                                    
                                                                                                    
                                                                                                    
                                                                                                    
                                                                                                    
                                                                                                    
                                                                                                    
                                                                                                    
                                                                                                    
                                                                                                    
                                                                                                    
                                                                                                    
                                                                                                    
                                                                                                    
                                                                                                    
                                                                                                    
                           
<?xpacket end="w"?></metadata>
<defs>
    <style>
      .cls-1 {
        fill: #1c2262;
        fill-rule: evenodd;
      }
    </style>
  </defs>
  <path id="Shape_1_copy_2" data-name="Shape 1 copy 2" class="cls-1" d="M821.308,867.2a1.765,1.765,0,0,0-1.293-.608,1.823,1.823,0,0,0-1.308.6L817.5,868.43c-0.1-.055-0.2-0.106-0.294-0.157-0.138-.07-0.268-0.137-0.379-0.208a13.289,13.289,0,0,1-3.148-2.942,7.994,7.994,0,0,1-1.033-1.671c0.313-.294.6-0.6,0.887-0.895l0.322-.333a1.831,1.831,0,0,0,0-2.715l-1.045-1.071c-0.118-.122-0.241-0.247-0.355-0.373-0.23-.243-0.471-0.494-0.72-0.729a1.787,1.787,0,0,0-1.281-.577,1.851,1.851,0,0,0-1.3.577l-0.007.007-1.3,1.346a2.9,2.9,0,0,0-.83,1.824,7.019,7.019,0,0,0,.49,2.911,16.966,16.966,0,0,0,2.926,5.006,18.055,18.055,0,0,0,5.994,4.813,9.156,9.156,0,0,0,3.366,1.02c0.081,0,.165.009,0.241,0.009a2.852,2.852,0,0,0,2.208-.973c0-.009.011-0.012,0.015-0.02a8.8,8.8,0,0,1,.669-0.71c0.165-.161.333-0.33,0.5-0.506a1.984,1.984,0,0,0,.577-1.358,1.9,1.9,0,0,0-.589-1.345Zm1.37,4.131s0,0,0,0c-0.15.165-.3,0.314-0.467,0.479a10.118,10.118,0,0,0-.738.784,1.824,1.824,0,0,1-1.439.624c-0.057,0-.118,0-0.176,0a8.116,8.116,0,0,1-2.983-.918,17.055,17.055,0,0,1-5.646-4.534,16.023,16.023,0,0,1-2.755-4.705,5.724,5.724,0,0,1-.428-2.455,1.815,1.815,0,0,1,.528-1.165l1.3-1.338a0.859,0.859,0,0,1,.582-0.279,0.807,0.807,0,0,1,.558.275l0.012,0.012c0.233,0.223.455,0.455,0.688,0.7l0.364,0.38,1.044,1.071a0.761,0.761,0,0,1,0,1.217c-0.111.113-.218,0.227-0.329,0.337-0.321.337-.628,0.651-0.96,0.957a0.07,0.07,0,0,0-.019.02,0.814,0.814,0,0,0-.2.89c0,0.012.007,0.024,0.011,0.036a8.65,8.65,0,0,0,1.236,2.067l0,0a14.164,14.164,0,0,0,3.4,3.17,5.351,5.351,0,0,0,.471.263,4.222,4.222,0,0,1,.379.208c0.015,0.007.03,0.019,0.045,0.026a0.766,0.766,0,0,0,.961-0.172l1.308-1.341a0.857,0.857,0,0,1,.578-0.3,0.769,0.769,0,0,1,.55.287l0.008,0.008,2.108,2.161A0.788,0.788,0,0,1,822.678,871.329Z" transform="translate(-807 -856.75)"/>
</svg>
