<svg xmlns="http://www.w3.org/2000/svg" width="15" height="17.5" viewBox="0 0 15 17.5">
  <metadata><?xpacket begin="﻿" id="W5M0MpCehiHzreSzNTczkc9d"?>
<x:xmpmeta xmlns:x="adobe:ns:meta/" x:xmptk="Adobe XMP Core 5.6-c142 79.160924, 2017/07/13-01:06:39        ">
   <rdf:RDF xmlns:rdf="http://www.w3.org/1999/02/22-rdf-syntax-ns#">
      <rdf:Description rdf:about=""/>
   </rdf:RDF>
</x:xmpmeta>
                                                                                                    
                                                                                                    
                                                                                                    
                                                                                                    
                                                                                                    
                                                                                                    
                                                                                                    
                                                                                                    
                                                                                                    
                                                                                                    
                                                                                                    
                                                                                                    
                                                                                                    
                                                                                                    
                                                                                                    
                                                                                                    
                                                                                                    
                                                                                                    
                                                                                                    
                                                                                                    
                           
<?xpacket end="w"?></metadata>
<defs>
    <style>
      .cls-1 {
        fill: #1c2262;
        fill-rule: evenodd;
      }
    </style>
  </defs>
  <path class="cls-1" d="M814.436,607.117h0.117a3.376,3.376,0,0,0,2.574-1.105c1.406-1.574,1.173-4.271,1.147-4.529A3.691,3.691,0,0,0,816.5,598.2a4.1,4.1,0,0,0-1.965-.511h-0.062a4.091,4.091,0,0,0-1.964.5,3.7,3.7,0,0,0-1.793,3.3c-0.026.258-.26,2.955,1.146,4.529A3.365,3.365,0,0,0,814.436,607.117Zm-2.742-5.543c0-.011,0-0.022,0-0.029,0.121-2.6,1.98-2.878,2.776-2.878h0.043a2.662,2.662,0,0,1,2.776,2.878,0.083,0.083,0,0,0,0,.029c0,0.026.26,2.491-.9,3.788a2.4,2.4,0,0,1-1.88.776h-0.037a2.394,2.394,0,0,1-1.877-.776C811.442,604.072,811.69,601.6,811.694,601.574ZM822,611.59v-0.011c0-.029,0-0.057,0-0.09-0.022-.718-0.069-2.4-1.654-2.933l-0.037-.01a10.538,10.538,0,0,1-3.03-1.371,0.5,0.5,0,0,0-.687.119,0.488,0.488,0,0,0,.12.682,11.411,11.411,0,0,0,3.335,1.512c0.85,0.3.945,1.2,0.971,2.03a0.678,0.678,0,0,0,0,.091,6.643,6.643,0,0,1-.077,1.12,14.68,14.68,0,0,1-12.88,0,6.246,6.246,0,0,1-.077-1.119c0-.03,0-0.058,0-0.091,0.026-.827.121-1.73,0.971-2.031a11.482,11.482,0,0,0,3.334-1.511,0.487,0.487,0,0,0,.121-0.682,0.5,0.5,0,0,0-.687-0.12,10.425,10.425,0,0,1-3.031,1.371l-0.036.011c-1.585.54-1.632,2.218-1.654,2.932a0.656,0.656,0,0,1,0,.091v0.011a5.526,5.526,0,0,0,.186,1.642,0.471,0.471,0,0,0,.19.228,15.528,15.528,0,0,0,14.257,0,0.487,0.487,0,0,0,.19-0.228A5.8,5.8,0,0,0,822,611.59Z" transform="translate(-807 -597.688)"/>
</svg>
