<svg xmlns="http://www.w3.org/2000/svg" width="18" height="11.438" viewBox="0 0 18 11.438">
  <metadata><?xpacket begin="﻿" id="W5M0MpCehiHzreSzNTczkc9d"?>
<x:xmpmeta xmlns:x="adobe:ns:meta/" x:xmptk="Adobe XMP Core 5.6-c142 79.160924, 2017/07/13-01:06:39        ">
   <rdf:RDF xmlns:rdf="http://www.w3.org/1999/02/22-rdf-syntax-ns#">
      <rdf:Description rdf:about=""/>
   </rdf:RDF>
</x:xmpmeta>
                                                                                                    
                                                                                                    
                                                                                                    
                                                                                                    
                                                                                                    
                                                                                                    
                                                                                                    
                                                                                                    
                                                                                                    
                                                                                                    
                                                                                                    
                                                                                                    
                                                                                                    
                                                                                                    
                                                                                                    
                                                                                                    
                                                                                                    
                                                                                                    
                                                                                                    
                                                                                                    
                           
<?xpacket end="w"?></metadata>
<defs>
    <style>
      .cls-1 {
        fill: #1c2262;
        fill-rule: evenodd;
      }
    </style>
  </defs>
  <path id="Forma_1_copy_4" data-name="Forma 1 copy 4" class="cls-1" d="M822.679,773.526h-16.53a0.737,0.737,0,0,0-.742.733v9.982a0.736,0.736,0,0,0,.742.731h16.53a0.736,0.736,0,0,0,.742-0.731v-9.982A0.737,0.737,0,0,0,822.679,773.526Zm-16.53.577h16.53a0.157,0.157,0,0,1,.151.111l-8.416,5.193L806,774.214A0.158,0.158,0,0,1,806.149,774.1Zm-0.159.767,6.054,3.735-6.054,4.745v-8.48Zm16.848,9.367a0.158,0.158,0,0,1-.159.156h-16.53a0.158,0.158,0,0,1-.159-0.156v-0.155l6.578-5.136,1.69,1.045a0.3,0.3,0,0,0,.311,0l1.691-1.045,6.578,5.136v0.155Zm0-.887-6.07-4.73,6.07-3.716v8.446Z" transform="translate(-805.406 -773.531)"/>
</svg>
