<?xml version="1.0" encoding="utf-8"?>
<!-- Generator: Adobe Illustrator 16.0.0, SVG Export Plug-In . SVG Version: 6.00 Build 0)  -->
<!DOCTYPE svg PUBLIC "-//W3C//DTD SVG 1.1//EN" "http://www.w3.org/Graphics/SVG/1.1/DTD/svg11.dtd">
<svg version="1.1" id="Layer_1" xmlns="http://www.w3.org/2000/svg" xmlns:xlink="http://www.w3.org/1999/xlink" x="0px" y="0px"
	 width="344.76px" height="389.816px" viewBox="0 0 344.76 389.816" enable-background="new 0 0 344.76 389.816"
	 xml:space="preserve">
<g>
	<defs>
		<rect id="SVGID_1_" width="344.76" height="389.816"/>
	</defs>
	<clipPath id="SVGID_2_">
		<use xlink:href="#SVGID_1_"  overflow="visible"/>
	</clipPath>
	<path clip-path="url(#SVGID_2_)" fill="#ECB3CB" d="M159.087,291.042c0-8.036,6.515-14.552,14.552-14.552h0.552
		c8.036,0,14.552,6.516,14.552,14.552c0,8.037-6.516,14.552-14.552,14.552h-0.552c-4.019,0-7.656-1.628-10.29-4.262
		C160.716,298.698,159.087,295.061,159.087,291.042"/>
</g>
<g>
	<defs>
		<path id="SVGID_3_" d="M212.634,277.015c-7.689,0-13.923,6.233-13.923,13.923c0,7.688,6.233,13.922,13.923,13.922h116.306
			c7.689,0,13.923-6.233,13.923-13.922c0-7.689-6.233-13.923-13.923-13.923H212.634z"/>
	</defs>
	<clipPath id="SVGID_4_">
		<use xlink:href="#SVGID_3_"  overflow="visible"/>
	</clipPath>
	
		<linearGradient id="SVGID_5_" gradientUnits="userSpaceOnUse" x1="0" y1="389.8159" x2="1" y2="389.8159" gradientTransform="matrix(145.6166 0 0 145.6166 198 -56472.7422)">
		<stop  offset="0" style="stop-color:#E09CBB"/>
		<stop  offset="0.1377" style="stop-color:#D7B3CE"/>
		<stop  offset="0.3184" style="stop-color:#CFCAE2"/>
		<stop  offset="0.5123" style="stop-color:#C9DBEF"/>
		<stop  offset="0.7263" style="stop-color:#C5E5F7"/>
		<stop  offset="1" style="stop-color:#C4E8FA"/>
	</linearGradient>
	<rect x="198.711" y="277.015" clip-path="url(#SVGID_4_)" fill="url(#SVGID_5_)" width="144.151" height="27.845"/>
</g>
<g>
	<defs>
		<rect id="SVGID_6_" width="344.76" height="389.816"/>
	</defs>
	<clipPath id="SVGID_7_">
		<use xlink:href="#SVGID_6_"  overflow="visible"/>
	</clipPath>
	<path clip-path="url(#SVGID_7_)" fill="#ECB3CB" d="M226.802,290.804c0,7.641-6.193,13.832-13.834,13.832h-0.091
		c-7.474,0-13.926-5.741-14.254-13.207c-0.349-7.926,5.974-14.458,13.821-14.458h0.523c3.82,0,7.278,1.548,9.782,4.051
		C225.253,283.526,226.802,286.984,226.802,290.804"/>
	<path clip-path="url(#SVGID_7_)" fill="#ECB3CB" d="M267.135,290.804c0,7.641-6.193,13.832-13.834,13.832h-0.091
		c-7.474,0-13.925-5.741-14.254-13.207c-0.349-7.926,5.974-14.458,13.821-14.458h0.523c3.82,0,7.278,1.548,9.782,4.051
		C265.587,283.526,267.135,286.984,267.135,290.804"/>
	<path clip-path="url(#SVGID_7_)" fill="#ECB3CB" d="M305.968,290.804c0,7.641-6.192,13.832-13.833,13.832h-0.092
		c-7.474,0-13.925-5.741-14.253-13.207c-0.349-7.926,5.973-14.458,13.82-14.458h0.524c3.82,0,7.278,1.548,9.781,4.051
		C304.42,283.526,305.968,286.984,305.968,290.804"/>
	<path clip-path="url(#SVGID_7_)" fill="#ECB3CB" d="M342.802,290.804c0,7.641-6.193,13.832-13.834,13.832h-0.091
		c-7.474,0-13.926-5.741-14.254-13.207c-0.349-7.926,5.974-14.458,13.821-14.458h0.523c3.82,0,7.278,1.548,9.782,4.051
		C341.253,283.526,342.802,286.984,342.802,290.804"/>
	<path clip-path="url(#SVGID_7_)" fill="#ECB3CB" d="M155.908,114.458c0-8.037,6.515-14.552,14.552-14.552h0.551
		c8.037,0,14.553,6.515,14.553,14.552s-6.517,14.551-14.553,14.551h-0.551c-4.019,0-7.656-1.628-10.289-4.261
		C157.537,122.114,155.908,118.478,155.908,114.458"/>
	<path clip-path="url(#SVGID_7_)" fill="#ECB3CB" d="M155.909,198.25c0-8.037,6.514-14.551,14.551-14.551h0.551
		c8.037,0,14.553,6.514,14.553,14.551s-6.517,14.551-14.553,14.551h-0.551c-4.019,0-7.656-1.628-10.289-4.261
		C157.537,205.906,155.909,202.268,155.909,198.25"/>
</g>
<g>
	<defs>
		<path id="SVGID_8_" d="M13.923,0C6.233,0,0,6.233,0,13.923s6.233,13.923,13.923,13.923h116.305c7.69,0,13.923-6.233,13.923-13.923
			S137.918,0,130.228,0H13.923z"/>
	</defs>
	<clipPath id="SVGID_9_">
		<use xlink:href="#SVGID_8_"  overflow="visible"/>
	</clipPath>
	
		<linearGradient id="SVGID_10_" gradientUnits="userSpaceOnUse" x1="0" y1="389.8169" x2="1" y2="389.8169" gradientTransform="matrix(-145.6166 0 0 -145.6166 144.875 56777.625)">
		<stop  offset="0" style="stop-color:#E09CBB"/>
		<stop  offset="0.1377" style="stop-color:#D7B3CE"/>
		<stop  offset="0.3184" style="stop-color:#CFCAE2"/>
		<stop  offset="0.5123" style="stop-color:#C9DBEF"/>
		<stop  offset="0.7263" style="stop-color:#C5E5F7"/>
		<stop  offset="1" style="stop-color:#C4E8FA"/>
	</linearGradient>
	<rect clip-path="url(#SVGID_9_)" fill="url(#SVGID_10_)" width="144.151" height="27.846"/>
</g>
<g>
	<defs>
		<path id="SVGID_11_" d="M211.708,0.235c-7.69,0-13.923,6.233-13.923,13.922c0,7.69,6.232,13.923,13.923,13.923h116.306
			c7.69,0,13.924-6.233,13.924-13.923c0-7.689-6.233-13.922-13.924-13.922H211.708z"/>
	</defs>
	<clipPath id="SVGID_12_">
		<use xlink:href="#SVGID_11_"  overflow="visible"/>
	</clipPath>
	
		<linearGradient id="SVGID_13_" gradientUnits="userSpaceOnUse" x1="0" y1="389.8159" x2="1" y2="389.8159" gradientTransform="matrix(145.6166 0 0 145.6166 197 -56749.4922)">
		<stop  offset="0" style="stop-color:#E09CBB"/>
		<stop  offset="0.1377" style="stop-color:#D7B3CE"/>
		<stop  offset="0.3184" style="stop-color:#CFCAE2"/>
		<stop  offset="0.5123" style="stop-color:#C9DBEF"/>
		<stop  offset="0.7263" style="stop-color:#C5E5F7"/>
		<stop  offset="1" style="stop-color:#C4E8FA"/>
	</linearGradient>
	<rect x="197.785" y="0.235" clip-path="url(#SVGID_12_)" fill="url(#SVGID_13_)" width="144.152" height="27.845"/>
</g>
<g>
	<defs>
		<rect id="SVGID_14_" width="344.76" height="389.816"/>
	</defs>
	<clipPath id="SVGID_15_">
		<use xlink:href="#SVGID_14_"  overflow="visible"/>
	</clipPath>
	<path clip-path="url(#SVGID_15_)" fill="#ECB3CB" d="M155.908,41.458c0-8.037,6.515-14.552,14.552-14.552h0.551
		c8.037,0,14.553,6.515,14.553,14.552s-6.517,14.551-14.553,14.551h-0.551c-4.019,0-7.656-1.628-10.289-4.261
		C157.537,49.114,155.908,45.478,155.908,41.458"/>
	<path clip-path="url(#SVGID_15_)" fill="#C3D7EE" d="M130.838,304.816H14.532c-7.689,0-13.923-6.233-13.923-13.923
		s6.234-13.922,13.923-13.922h116.306c7.689,0,13.923,6.232,13.923,13.922S138.527,304.816,130.838,304.816"/>
	<path clip-path="url(#SVGID_15_)" fill="#ECB3CB" d="M116.67,291.027c0-7.641,6.193-13.833,13.833-13.833h0.524
		c7.641,0,13.835,6.192,13.835,13.833s-6.194,13.833-13.835,13.833h-0.524c-3.819,0-7.277-1.548-9.781-4.051
		C118.218,298.305,116.67,294.847,116.67,291.027"/>
	<path clip-path="url(#SVGID_15_)" fill="#ECB3CB" d="M76.337,291.027c0-7.641,6.192-13.833,13.833-13.833h0.524
		c7.64,0,13.834,6.192,13.834,13.833s-6.194,13.833-13.834,13.833H90.17c-3.82,0-7.278-1.548-9.781-4.051
		C77.885,298.305,76.337,294.847,76.337,291.027"/>
	<path clip-path="url(#SVGID_15_)" fill="#ECB3CB" d="M37.503,291.027c0-7.641,6.193-13.833,13.834-13.833h0.523
		c7.641,0,13.835,6.192,13.835,13.833S59.501,304.86,51.86,304.86h-0.523c-3.82,0-7.278-1.548-9.782-4.051
		C39.051,298.305,37.503,294.847,37.503,291.027"/>
	<path clip-path="url(#SVGID_15_)" fill="#ECB3CB" d="M0.67,291.027c0-7.641,6.193-13.833,13.833-13.833h0.524
		c7.641,0,13.835,6.192,13.835,13.833s-6.194,13.833-13.835,13.833h-0.524c-3.819,0-7.277-1.548-9.781-4.051
		C2.218,298.305,0.67,294.847,0.67,291.027"/>
</g>
<g>
	<defs>
		<path id="SVGID_16_" d="M212.634,184.181c-7.689,0-13.923,6.234-13.923,13.923c0,7.689,6.233,13.923,13.923,13.923h116.306
			c7.689,0,13.923-6.233,13.923-13.923c0-7.689-6.233-13.923-13.923-13.923H212.634z"/>
	</defs>
	<clipPath id="SVGID_17_">
		<use xlink:href="#SVGID_16_"  overflow="visible"/>
	</clipPath>
	
		<linearGradient id="SVGID_18_" gradientUnits="userSpaceOnUse" x1="0" y1="389.8159" x2="1" y2="389.8159" gradientTransform="matrix(145.6166 0 0 145.6166 198 -56565.6172)">
		<stop  offset="0" style="stop-color:#E09CBB"/>
		<stop  offset="0.1377" style="stop-color:#D7B3CE"/>
		<stop  offset="0.3184" style="stop-color:#CFCAE2"/>
		<stop  offset="0.5123" style="stop-color:#C9DBEF"/>
		<stop  offset="0.7263" style="stop-color:#C5E5F7"/>
		<stop  offset="1" style="stop-color:#C4E8FA"/>
	</linearGradient>
	<rect x="198.711" y="184.181" clip-path="url(#SVGID_17_)" fill="url(#SVGID_18_)" width="144.151" height="27.846"/>
</g>
<g>
	<defs>
		<rect id="SVGID_19_" width="344.76" height="389.816"/>
	</defs>
	<clipPath id="SVGID_20_">
		<use xlink:href="#SVGID_19_"  overflow="visible"/>
	</clipPath>
	<path clip-path="url(#SVGID_20_)" fill="#C3D7EE" d="M130.838,211.982H14.532c-7.689,0-13.923-6.232-13.923-13.922
		s6.234-13.923,13.923-13.923h116.306c7.689,0,13.923,6.233,13.923,13.923S138.527,211.982,130.838,211.982"/>
	<path clip-path="url(#SVGID_20_)" fill="#ECB3CB" d="M116.67,198.194c0-7.641,6.193-13.833,13.833-13.833h0.524
		c7.641,0,13.835,6.192,13.835,13.833c0,7.641-6.194,13.833-13.835,13.833h-0.524c-3.819,0-7.277-1.547-9.781-4.051
		C118.218,205.472,116.67,202.014,116.67,198.194"/>
	<path clip-path="url(#SVGID_20_)" fill="#ECB3CB" d="M76.337,198.194c0-7.641,6.192-13.833,13.833-13.833h0.524
		c7.64,0,13.834,6.192,13.834,13.833c0,7.641-6.194,13.833-13.834,13.833H90.17c-3.82,0-7.278-1.547-9.781-4.051
		C77.885,205.472,76.337,202.014,76.337,198.194"/>
</g>
<g>
	<defs>
		<path id="SVGID_21_" d="M212.634,100.849c-7.689,0-13.923,6.233-13.923,13.923c0,7.688,6.233,13.922,13.923,13.922h116.306
			c7.689,0,13.923-6.234,13.923-13.922c0-7.69-6.233-13.923-13.923-13.923H212.634z"/>
	</defs>
	<clipPath id="SVGID_22_">
		<use xlink:href="#SVGID_21_"  overflow="visible"/>
	</clipPath>
	
		<linearGradient id="SVGID_23_" gradientUnits="userSpaceOnUse" x1="0" y1="389.8159" x2="1" y2="389.8159" gradientTransform="matrix(145.6166 0 0 145.6166 198 -56648.8672)">
		<stop  offset="0" style="stop-color:#E09CBB"/>
		<stop  offset="0.1377" style="stop-color:#D7B3CE"/>
		<stop  offset="0.3184" style="stop-color:#CFCAE2"/>
		<stop  offset="0.5123" style="stop-color:#C9DBEF"/>
		<stop  offset="0.7263" style="stop-color:#C5E5F7"/>
		<stop  offset="1" style="stop-color:#C4E8FA"/>
	</linearGradient>
	<rect x="198.711" y="100.849" clip-path="url(#SVGID_22_)" fill="url(#SVGID_23_)" width="144.151" height="27.845"/>
</g>
<g>
	<defs>
		<rect id="SVGID_24_" width="344.76" height="389.816"/>
	</defs>
	<clipPath id="SVGID_25_">
		<use xlink:href="#SVGID_24_"  overflow="visible"/>
	</clipPath>
	<path clip-path="url(#SVGID_25_)" fill="#C3D7EE" d="M130.838,128.649H14.532c-7.689,0-13.923-6.233-13.923-13.923
		c0-7.689,6.234-13.923,13.923-13.923h116.306c7.689,0,13.923,6.234,13.923,13.923C144.761,122.417,138.527,128.649,130.838,128.649
		"/>
</g>
<g>
	<defs>
		<path id="SVGID_26_" d="M212.634,0.849c-7.689,0-13.923,6.233-13.923,13.922s6.233,13.923,13.923,13.923h116.306
			c7.689,0,13.923-6.234,13.923-13.923s-6.233-13.922-13.923-13.922H212.634z"/>
	</defs>
	<clipPath id="SVGID_27_">
		<use xlink:href="#SVGID_26_"  overflow="visible"/>
	</clipPath>
	
		<linearGradient id="SVGID_28_" gradientUnits="userSpaceOnUse" x1="0" y1="389.8159" x2="1" y2="389.8159" gradientTransform="matrix(145.6166 0 0 145.6166 198 -56748.8672)">
		<stop  offset="0" style="stop-color:#E09CBB"/>
		<stop  offset="0.1377" style="stop-color:#D7B3CE"/>
		<stop  offset="0.3184" style="stop-color:#CFCAE2"/>
		<stop  offset="0.5123" style="stop-color:#C9DBEF"/>
		<stop  offset="0.7263" style="stop-color:#C5E5F7"/>
		<stop  offset="1" style="stop-color:#C4E8FA"/>
	</linearGradient>
	<rect x="198.711" y="0.849" clip-path="url(#SVGID_27_)" fill="url(#SVGID_28_)" width="144.151" height="27.845"/>
</g>
<g>
	<defs>
		<rect id="SVGID_29_" width="344.76" height="389.816"/>
	</defs>
	<clipPath id="SVGID_30_">
		<use xlink:href="#SVGID_29_"  overflow="visible"/>
	</clipPath>
	<path clip-path="url(#SVGID_30_)" fill="#C3D7EE" d="M130.838,28.649H14.532c-7.689,0-13.923-6.233-13.923-13.923
		c0-7.689,6.234-13.923,13.923-13.923h116.306c7.689,0,13.923,6.234,13.923,13.923C144.761,22.417,138.527,28.649,130.838,28.649"/>
	<path clip-path="url(#SVGID_30_)" fill="#ECB3CB" d="M226.802,198.194c0,7.641-6.193,13.833-13.834,13.833h-0.091
		c-7.474,0-13.926-5.742-14.254-13.208c-0.349-7.925,5.974-14.458,13.821-14.458h0.523c3.82,0,7.278,1.547,9.782,4.051
		C225.253,190.916,226.802,194.374,226.802,198.194"/>
	<path clip-path="url(#SVGID_30_)" fill="#ECB3CB" d="M267.135,198.194c0,7.641-6.193,13.833-13.834,13.833h-0.091
		c-7.474,0-13.925-5.742-14.254-13.208c-0.349-7.925,5.974-14.458,13.821-14.458h0.523c3.82,0,7.278,1.547,9.782,4.051
		C265.587,190.916,267.135,194.374,267.135,198.194"/>
	<path clip-path="url(#SVGID_30_)" fill="#ECB3CB" d="M305.968,198.194c0,7.641-6.192,13.833-13.833,13.833h-0.092
		c-7.474,0-13.925-5.742-14.253-13.208c-0.349-7.925,5.973-14.458,13.82-14.458h0.524c3.82,0,7.278,1.547,9.781,4.051
		C304.42,190.916,305.968,194.374,305.968,198.194"/>
	<path clip-path="url(#SVGID_30_)" fill="#ECB3CB" d="M342.802,198.194c0,7.641-6.193,13.833-13.834,13.833h-0.091
		c-7.474,0-13.926-5.742-14.254-13.208c-0.349-7.925,5.974-14.458,13.821-14.458h0.523c3.82,0,7.278,1.547,9.782,4.051
		C341.253,190.916,342.802,194.374,342.802,198.194"/>
	<path clip-path="url(#SVGID_30_)" fill="#ECB3CB" d="M226.802,114.727c0,7.641-6.193,13.833-13.834,13.833h-0.091
		c-7.474,0-13.926-5.742-14.254-13.208c-0.349-7.925,5.974-14.458,13.821-14.458h0.523c3.82,0,7.278,1.547,9.782,4.051
		C225.253,107.449,226.802,110.907,226.802,114.727"/>
	<path clip-path="url(#SVGID_30_)" fill="#ECB3CB" d="M267.135,114.727c0,7.641-6.193,13.833-13.834,13.833h-0.091
		c-7.474,0-13.925-5.742-14.254-13.208c-0.349-7.925,5.974-14.458,13.821-14.458h0.523c3.82,0,7.278,1.547,9.782,4.051
		C265.587,107.449,267.135,110.907,267.135,114.727"/>
	<path clip-path="url(#SVGID_30_)" fill="#ECB3CB" d="M305.968,114.727c0,7.641-6.192,13.833-13.833,13.833h-0.092
		c-7.474,0-13.925-5.742-14.253-13.208c-0.349-7.925,5.973-14.458,13.82-14.458h0.524c3.82,0,7.278,1.547,9.781,4.051
		C304.42,107.449,305.968,110.907,305.968,114.727"/>
	<path clip-path="url(#SVGID_30_)" fill="#ECB3CB" d="M342.802,114.727c0,7.641-6.193,13.833-13.834,13.833h-0.091
		c-7.474,0-13.926-5.742-14.254-13.208c-0.349-7.925,5.974-14.458,13.821-14.458h0.523c3.82,0,7.278,1.547,9.782,4.051
		C341.253,107.449,342.802,110.907,342.802,114.727"/>
	<path clip-path="url(#SVGID_30_)" fill="#ECB3CB" d="M226.802,14.068c0,7.641-6.193,13.833-13.834,13.833h-0.091
		c-7.474,0-13.926-5.742-14.254-13.208c-0.349-7.925,5.974-14.458,13.821-14.458h0.523c3.82,0,7.278,1.548,9.782,4.051
		C225.253,6.79,226.802,10.248,226.802,14.068"/>
	<path clip-path="url(#SVGID_30_)" fill="#ECB3CB" d="M267.135,14.068c0,7.641-6.193,13.833-13.834,13.833h-0.091
		c-7.474,0-13.925-5.742-14.254-13.208c-0.349-7.925,5.974-14.458,13.821-14.458h0.523c3.82,0,7.278,1.548,9.782,4.051
		C265.587,6.79,267.135,10.248,267.135,14.068"/>
	<path clip-path="url(#SVGID_30_)" fill="#ECB3CB" d="M305.968,14.068c0,7.641-6.192,13.833-13.833,13.833h-0.092
		c-7.474,0-13.925-5.742-14.253-13.208c-0.349-7.925,5.973-14.458,13.82-14.458h0.524c3.82,0,7.278,1.548,9.781,4.051
		C304.42,6.79,305.968,10.248,305.968,14.068"/>
	<path clip-path="url(#SVGID_30_)" fill="#ECB3CB" d="M342.802,14.068c0,7.641-6.193,13.833-13.834,13.833h-0.091
		c-7.474,0-13.926-5.742-14.254-13.208c-0.349-7.925,5.974-14.458,13.821-14.458h0.523c3.82,0,7.278,1.548,9.782,4.051
		C341.253,6.79,342.802,10.248,342.802,14.068"/>
	<path clip-path="url(#SVGID_30_)" fill="#ECB3CB" d="M330.838,389.816H15.532c-7.689,0-13.923-6.233-13.923-13.923
		s6.234-13.922,13.923-13.922h315.306c7.689,0,13.923,6.232,13.923,13.922S338.527,389.816,330.838,389.816"/>
</g>
</svg>
