<svg xmlns="http://www.w3.org/2000/svg" width="14" height="19" viewBox="0 0 14 19">
  <metadata><?xpacket begin="﻿" id="W5M0MpCehiHzreSzNTczkc9d"?>
<x:xmpmeta xmlns:x="adobe:ns:meta/" x:xmptk="Adobe XMP Core 5.6-c142 79.160924, 2017/07/13-01:06:39        ">
   <rdf:RDF xmlns:rdf="http://www.w3.org/1999/02/22-rdf-syntax-ns#">
      <rdf:Description rdf:about=""/>
   </rdf:RDF>
</x:xmpmeta>
                                                                                                    
                                                                                                    
                                                                                                    
                                                                                                    
                                                                                                    
                                                                                                    
                                                                                                    
                                                                                                    
                                                                                                    
                                                                                                    
                                                                                                    
                                                                                                    
                                                                                                    
                                                                                                    
                                                                                                    
                                                                                                    
                                                                                                    
                                                                                                    
                                                                                                    
                                                                                                    
                           
<?xpacket end="w"?></metadata>
<defs>
    <style>
      .cls-1 {
        fill: #1c2262;
        fill-rule: evenodd;
      }
    </style>
  </defs>
  <path class="cls-1" d="M141,443.119A6.95,6.95,0,0,0,134,450c0,4.71,6.264,11.626,6.531,11.918a0.638,0.638,0,0,0,.938,0C141.736,461.629,148,454.713,148,450A6.95,6.95,0,0,0,141,443.119Zm0,17.438c-2.108-2.462-5.739-7.321-5.739-10.554a5.74,5.74,0,0,1,11.478,0C146.739,453.236,143.109,458.094,141,460.557Zm0-14.017A3.463,3.463,0,1,0,144.522,450,3.5,3.5,0,0,0,141,446.54Zm0,5.687A2.224,2.224,0,1,1,143.261,450,2.245,2.245,0,0,1,141,452.227Z" transform="translate(-134 -443.125)"/>
</svg>
