<svg xmlns="http://www.w3.org/2000/svg" width="18.594" height="25.438" viewBox="0 0 18.594 25.438">
  <metadata><?xpacket begin="﻿" id="W5M0MpCehiHzreSzNTczkc9d"?>
<x:xmpmeta xmlns:x="adobe:ns:meta/" x:xmptk="Adobe XMP Core 5.6-c138 79.159824, 2016/09/14-01:09:01        ">
   <rdf:RDF xmlns:rdf="http://www.w3.org/1999/02/22-rdf-syntax-ns#">
      <rdf:Description rdf:about=""/>
   </rdf:RDF>
</x:xmpmeta>
                                                                                                    
                                                                                                    
                                                                                                    
                                                                                                    
                                                                                                    
                                                                                                    
                                                                                                    
                                                                                                    
                                                                                                    
                                                                                                    
                                                                                                    
                                                                                                    
                                                                                                    
                                                                                                    
                                                                                                    
                                                                                                    
                                                                                                    
                                                                                                    
                                                                                                    
                                                                                                    
                           
<?xpacket end="w"?></metadata>
<defs>
    <style>
      .cls-1 {
        fill: #1c2262;
        fill-rule: evenodd;
      }
    </style>
  </defs>
  <path id="Shape_1_copy_10" data-name="Shape 1 copy 10" class="cls-1" d="M775.3,774.549a9.267,9.267,0,0,0-9.3,9.211c0,6.3,8.324,15.557,8.678,15.948a0.843,0.843,0,0,0,1.246,0c0.355-.391,8.678-9.644,8.678-15.948A9.267,9.267,0,0,0,775.3,774.549Zm0,23.334c-2.8-3.3-7.626-9.8-7.626-14.123a7.626,7.626,0,0,1,15.252,0C782.927,788.086,778.1,794.587,775.3,797.883Zm0-18.758a4.635,4.635,0,1,0,4.68,4.635A4.664,4.664,0,0,0,775.3,779.125Zm0,7.61a2.976,2.976,0,1,1,3-2.975A2.993,2.993,0,0,1,775.3,786.735Z" transform="translate(-766 -774.562)"/>
</svg>
