<svg xmlns="http://www.w3.org/2000/svg" width="25.812" height="25.81" viewBox="0 0 25.812 25.81">
  <metadata><?xpacket begin="﻿" id="W5M0MpCehiHzreSzNTczkc9d"?>
<x:xmpmeta xmlns:x="adobe:ns:meta/" x:xmptk="Adobe XMP Core 5.6-c138 79.159824, 2016/09/14-01:09:01        ">
   <rdf:RDF xmlns:rdf="http://www.w3.org/1999/02/22-rdf-syntax-ns#">
      <rdf:Description rdf:about=""/>
   </rdf:RDF>
</x:xmpmeta>
                                                                                                    
                                                                                                    
                                                                                                    
                                                                                                    
                                                                                                    
                                                                                                    
                                                                                                    
                                                                                                    
                                                                                                    
                                                                                                    
                                                                                                    
                                                                                                    
                                                                                                    
                                                                                                    
                                                                                                    
                                                                                                    
                                                                                                    
                                                                                                    
                                                                                                    
                                                                                                    
                           
<?xpacket end="w"?></metadata>
<defs>
    <style>
      .cls-1 {
        fill: #fff;
        fill-rule: evenodd;
      }
    </style>
  </defs>
  <path class="cls-1" d="M864.314,1108.76a2.721,2.721,0,0,0-1.963-.89,2.781,2.781,0,0,0-1.987.89l-1.835,1.82c-0.152-.09-0.3-0.16-0.448-0.24-0.209-.1-0.406-0.2-0.575-0.3a20,20,0,0,1-4.78-4.33,11.87,11.87,0,0,1-1.569-2.47c0.476-.43.918-0.88,1.348-1.31,0.162-.16.325-0.33,0.488-0.49a2.643,2.643,0,0,0,0-4l-1.586-1.58c-0.18-.18-0.366-0.36-0.54-0.55-0.349-.36-0.715-0.73-1.092-1.07a2.738,2.738,0,0,0-1.946-.85,2.83,2.83,0,0,0-1.975.85c-0.006,0-.006,0-0.012.01l-1.975,1.98a4.219,4.219,0,0,0-1.26,2.69,10.039,10.039,0,0,0,.743,4.28,24.848,24.848,0,0,0,4.444,7.38,27.288,27.288,0,0,0,9.1,7.08,14.293,14.293,0,0,0,5.112,1.51c0.122,0,.25.01,0.366,0.01a4.394,4.394,0,0,0,3.351-1.43,0.078,0.078,0,0,1,.024-0.03,11.888,11.888,0,0,1,1.016-1.05c0.25-.24.506-0.48,0.755-0.74a2.887,2.887,0,0,0,.877-2,2.745,2.745,0,0,0-.894-1.98Zm2.08,6.08c-0.006,0-.006.01,0,0-0.227.25-.459,0.47-0.709,0.71a14.091,14.091,0,0,0-1.121,1.16,2.814,2.814,0,0,1-2.184.91h-0.267a12.686,12.686,0,0,1-4.531-1.35,25.853,25.853,0,0,1-8.574-6.68,23.466,23.466,0,0,1-4.182-6.93,8.226,8.226,0,0,1-.651-3.62,2.647,2.647,0,0,1,.8-1.71l1.98-1.97a1.305,1.305,0,0,1,.883-0.41,1.26,1.26,0,0,1,.848.4c0.006,0.01.012,0.01,0.018,0.02,0.354,0.33.691,0.67,1.046,1.03,0.18,0.19.365,0.37,0.551,0.56l1.586,1.58a1.1,1.1,0,0,1,0,1.79c-0.168.17-.331,0.34-0.5,0.5-0.488.5-.953,0.96-1.458,1.41a0.141,0.141,0,0,0-.03.03,1.172,1.172,0,0,0-.3,1.31c0.006,0.02.012,0.03,0.018,0.05a12.63,12.63,0,0,0,1.876,3.05H851.5a21.123,21.123,0,0,0,5.158,4.67c0.238,0.15.482,0.27,0.715,0.39,0.209,0.1.406,0.2,0.575,0.3,0.023,0.01.046,0.03,0.069,0.04a1.255,1.255,0,0,0,.575.15,1.234,1.234,0,0,0,.883-0.4l1.987-1.98a1.341,1.341,0,0,1,.877-0.43,1.207,1.207,0,0,1,.836.42c0.006,0.01.006,0.01,0.012,0.01l3.2,3.19A1.131,1.131,0,0,1,866.394,1114.84Z" transform="translate(-842.594 -1093.38)"/>
</svg>
