<?xml version="1.0" encoding="utf-8"?>
<!-- Generator: Adobe Illustrator 16.0.0, SVG Export Plug-In . SVG Version: 6.00 Build 0)  -->
<!DOCTYPE svg PUBLIC "-//W3C//DTD SVG 1.1//EN" "http://www.w3.org/Graphics/SVG/1.1/DTD/svg11.dtd">
<svg version="1.1" id="Layer_1" xmlns="http://www.w3.org/2000/svg" xmlns:xlink="http://www.w3.org/1999/xlink" x="0px" y="0px"
	 width="1025px" height="166.472px" viewBox="0 0 1025 166.472" enable-background="new 0 0 1025 166.472" xml:space="preserve">
<g>
	<defs>
		<rect id="SVGID_1_" width="1024.996" height="166.472"/>
	</defs>
	<clipPath id="SVGID_2_">
		<use xlink:href="#SVGID_1_"  overflow="visible"/>
	</clipPath>
	<path clip-path="url(#SVGID_2_)" fill="#ECB3CB" d="M212.515,109.511c-7.055-7.053-7.055-18.49,0-25.544l0.483-0.485
		c7.054-7.054,18.492-7.054,25.545,0c7.055,7.055,7.055,18.491,0,25.545l-0.483,0.484c-3.527,3.527-8.15,5.291-12.773,5.291
		S216.041,113.039,212.515,109.511"/>
	<path clip-path="url(#SVGID_2_)" fill="#ECB3CB" d="M108.923,134.399c7.055,7.054,7.055,18.49,0,25.544l-0.483,0.485
		c-7.054,7.054-18.492,7.054-25.545,0c-7.055-7.055-7.055-18.491,0-25.545l0.483-0.484c3.527-3.527,8.15-5.291,12.773-5.291
		S105.396,130.872,108.923,134.399"/>
</g>
<g>
	<defs>
		<path id="SVGID_3_" d="M225.765,0.001c-4.565,0.043-9.117,1.807-12.6,5.29l-90.927,90.927c-7.054,7.054-7.054,18.49,0,25.545
			c7.054,7.054,18.491,7.054,25.546,0l90.926-90.927c7.054-7.054,7.054-18.491,0-25.545c-3.483-3.483-8.035-5.247-12.6-5.29H225.765
			z"/>
	</defs>
	<clipPath id="SVGID_4_">
		<use xlink:href="#SVGID_3_"  overflow="visible"/>
	</clipPath>
	
		<linearGradient id="SVGID_5_" gradientUnits="userSpaceOnUse" x1="0" y1="166.479" x2="1" y2="166.479" gradientTransform="matrix(-125.3293 0 0 125.3293 242.75 -20800.3008)">
		<stop  offset="0" style="stop-color:#C6E9FA"/>
		<stop  offset="0.2936" style="stop-color:#C8E6F8"/>
		<stop  offset="0.5297" style="stop-color:#D0DCF0"/>
		<stop  offset="0.7459" style="stop-color:#DDCBE3"/>
		<stop  offset="0.949" style="stop-color:#EFB3D1"/>
		<stop  offset="1" style="stop-color:#F5ACCC"/>
	</linearGradient>
	<rect x="115.184" y="0.001" clip-path="url(#SVGID_4_)" fill="url(#SVGID_5_)" width="130.58" height="128.816"/>
</g>
<g>
	<defs>
		<rect id="SVGID_6_" width="1024.996" height="166.472"/>
	</defs>
	<clipPath id="SVGID_7_">
		<use xlink:href="#SVGID_6_"  overflow="visible"/>
	</clipPath>
	<path clip-path="url(#SVGID_7_)" fill="#ECB3CB" d="M135.077,32.074c-7.055-7.054-7.055-18.491,0-25.545l0.483-0.484
		c7.054-7.054,18.492-7.054,25.545,0c7.055,7.053,7.055,18.49,0,25.545l-0.483,0.484c-3.527,3.527-8.15,5.29-12.773,5.29
		S138.604,35.601,135.077,32.074"/>
</g>
<g>
	<defs>
		<path id="SVGID_8_" d="M98.025,42.902L3.982,136.944c-2.751,2.752-3.955,5.697-3.982,8.685v0.201
			c0.04,4.605,2.858,9.304,7.098,13.545c4.249,4.249,8.957,7.068,13.572,7.098h0.148c2.996-0.02,5.95-1.223,8.71-3.983
			l94.042-94.042c7.054-7.054,7.054-18.491,0-25.545c-3.527-3.528-8.149-5.291-12.772-5.291S101.552,39.374,98.025,42.902"/>
	</defs>
	<clipPath id="SVGID_9_">
		<use xlink:href="#SVGID_8_"  overflow="visible"/>
	</clipPath>
	
		<linearGradient id="SVGID_10_" gradientUnits="userSpaceOnUse" x1="0" y1="166.4731" x2="1" y2="166.4731" gradientTransform="matrix(127.1126 0 0 -127.1126 1.25 21262.8125)">
		<stop  offset="0" style="stop-color:#C6E9FA"/>
		<stop  offset="0.2936" style="stop-color:#C8E6F8"/>
		<stop  offset="0.5297" style="stop-color:#D0DCF0"/>
		<stop  offset="0.7459" style="stop-color:#DDCBE3"/>
		<stop  offset="0.949" style="stop-color:#EFB3D1"/>
		<stop  offset="1" style="stop-color:#F5ACCC"/>
	</linearGradient>
	<rect y="37.611" clip-path="url(#SVGID_9_)" fill="url(#SVGID_10_)" width="130.624" height="128.861"/>
</g>
<g>
	<defs>
		<rect id="SVGID_11_" width="1024.996" height="166.472"/>
	</defs>
	<clipPath id="SVGID_12_">
		<use xlink:href="#SVGID_11_"  overflow="visible"/>
	</clipPath>
	<path clip-path="url(#SVGID_12_)" fill="#ECB3CB" d="M264.695,134.399c7.054,7.054,7.054,18.49,0,25.544l-0.484,0.485
		c-7.054,7.054-18.492,7.054-25.545,0c-7.054-7.055-7.054-18.491,0-25.545l0.484-0.484c3.527-3.527,8.15-5.291,12.773-5.291
		S261.168,130.872,264.695,134.399"/>
</g>
<g>
	<defs>
		<path id="SVGID_13_" d="M381.537,0.001c-4.565,0.043-9.117,1.807-12.599,5.29L278.01,96.218c-7.054,7.054-7.054,18.49,0,25.545
			c7.054,7.054,18.491,7.054,25.545,0l90.928-90.927c7.053-7.054,7.053-18.491,0-25.545c-3.484-3.483-8.036-5.247-12.601-5.29
			H381.537z"/>
	</defs>
	<clipPath id="SVGID_14_">
		<use xlink:href="#SVGID_13_"  overflow="visible"/>
	</clipPath>
	
		<linearGradient id="SVGID_15_" gradientUnits="userSpaceOnUse" x1="0" y1="166.479" x2="1" y2="166.479" gradientTransform="matrix(-125.3293 0 0 125.3293 398.5625 -20800.3008)">
		<stop  offset="0" style="stop-color:#C6E9FA"/>
		<stop  offset="0.2936" style="stop-color:#C8E6F8"/>
		<stop  offset="0.5297" style="stop-color:#D0DCF0"/>
		<stop  offset="0.7459" style="stop-color:#DDCBE3"/>
		<stop  offset="0.949" style="stop-color:#EFB3D1"/>
		<stop  offset="1" style="stop-color:#F5ACCC"/>
	</linearGradient>
	<rect x="270.956" y="0.001" clip-path="url(#SVGID_14_)" fill="url(#SVGID_15_)" width="130.58" height="128.816"/>
</g>
<g>
	<defs>
		<rect id="SVGID_16_" width="1024.996" height="166.472"/>
	</defs>
	<clipPath id="SVGID_17_">
		<use xlink:href="#SVGID_16_"  overflow="visible"/>
	</clipPath>
	<path clip-path="url(#SVGID_17_)" fill="#ECB3CB" d="M290.849,32.074c-7.054-7.054-7.054-18.491,0-25.545l0.484-0.484
		c7.054-7.054,18.492-7.054,25.545,0c7.054,7.053,7.054,18.49,0,25.545l-0.484,0.484c-3.526,3.527-8.149,5.29-12.773,5.29
		C298.999,37.364,294.375,35.601,290.849,32.074"/>
</g>
<g>
	<defs>
		<path id="SVGID_18_" d="M253.798,42.902l-94.043,94.042c-7.054,7.055-3.939,15.376,3.116,22.431
			c4.249,4.249,8.957,7.068,13.571,7.098h0.148c2.996-0.02,5.95-1.223,8.71-3.983l94.043-94.042c7.053-7.054,7.053-18.491,0-25.545
			c-3.527-3.528-8.15-5.291-12.773-5.291C261.948,37.611,257.324,39.374,253.798,42.902"/>
	</defs>
	<clipPath id="SVGID_19_">
		<use xlink:href="#SVGID_18_"  overflow="visible"/>
	</clipPath>
	
		<linearGradient id="SVGID_20_" gradientUnits="userSpaceOnUse" x1="0" y1="166.4731" x2="1" y2="166.4731" gradientTransform="matrix(127.1126 0 0 -127.1126 157 21262.8125)">
		<stop  offset="0" style="stop-color:#C6E9FA"/>
		<stop  offset="0.2936" style="stop-color:#C8E6F8"/>
		<stop  offset="0.5297" style="stop-color:#D0DCF0"/>
		<stop  offset="0.7459" style="stop-color:#DDCBE3"/>
		<stop  offset="0.949" style="stop-color:#EFB3D1"/>
		<stop  offset="1" style="stop-color:#F5ACCC"/>
	</linearGradient>
	<rect x="152.701" y="37.611" clip-path="url(#SVGID_19_)" fill="url(#SVGID_20_)" width="133.695" height="128.861"/>
</g>
<g>
	<defs>
		<rect id="SVGID_21_" width="1024.996" height="166.472"/>
	</defs>
	<clipPath id="SVGID_22_">
		<use xlink:href="#SVGID_21_"  overflow="visible"/>
	</clipPath>
	<path clip-path="url(#SVGID_22_)" fill="#ECB3CB" d="M420.468,134.399c7.054,7.054,7.054,18.49,0,25.544l-0.484,0.485
		c-7.054,7.054-18.492,7.054-25.545,0c-7.054-7.055-7.054-18.491,0-25.545l0.484-0.484c3.527-3.527,8.149-5.291,12.773-5.291
		C412.318,129.108,416.941,130.872,420.468,134.399"/>
</g>
<g>
	<defs>
		<path id="SVGID_23_" d="M537.309,0.001c-4.564,0.043-9.116,1.807-12.6,5.29l-90.927,90.927c-7.053,7.054-7.053,18.49,0,25.545
			c7.055,7.054,18.49,7.054,25.545,0l90.927-90.927c7.054-7.054,7.054-18.491,0-25.545c-3.482-3.483-8.035-5.247-12.6-5.29H537.309z
			"/>
	</defs>
	<clipPath id="SVGID_24_">
		<use xlink:href="#SVGID_23_"  overflow="visible"/>
	</clipPath>
	
		<linearGradient id="SVGID_25_" gradientUnits="userSpaceOnUse" x1="0" y1="166.479" x2="1" y2="166.479" gradientTransform="matrix(-125.3293 0 0 125.3293 554.3125 -20800.3008)">
		<stop  offset="0" style="stop-color:#C6E9FA"/>
		<stop  offset="0.2936" style="stop-color:#C8E6F8"/>
		<stop  offset="0.5297" style="stop-color:#D0DCF0"/>
		<stop  offset="0.7459" style="stop-color:#DDCBE3"/>
		<stop  offset="0.949" style="stop-color:#EFB3D1"/>
		<stop  offset="1" style="stop-color:#F5ACCC"/>
	</linearGradient>
	<rect x="426.729" y="0.001" clip-path="url(#SVGID_24_)" fill="url(#SVGID_25_)" width="130.579" height="128.816"/>
</g>
<g>
	<defs>
		<rect id="SVGID_26_" width="1024.996" height="166.472"/>
	</defs>
	<clipPath id="SVGID_27_">
		<use xlink:href="#SVGID_26_"  overflow="visible"/>
	</clipPath>
	<path clip-path="url(#SVGID_27_)" fill="#ECB3CB" d="M446.621,32.074c-7.054-7.054-7.054-18.491,0-25.545l0.484-0.484
		c7.054-7.054,18.492-7.054,25.545,0c7.054,7.053,7.054,18.49,0,25.545l-0.484,0.484c-3.527,3.527-8.149,5.29-12.773,5.29
		C454.771,37.364,450.148,35.601,446.621,32.074"/>
</g>
<g>
	<defs>
		<path id="SVGID_28_" d="M409.569,42.902l-94.042,94.042c-7.054,7.055-3.938,15.376,3.115,22.431
			c4.25,4.249,8.958,7.068,13.573,7.098h0.147c2.996-0.02,5.95-1.223,8.71-3.983l94.042-94.042c7.054-7.054,7.054-18.491,0-25.545
			c-3.527-3.528-8.149-5.291-12.772-5.291S413.096,39.374,409.569,42.902"/>
	</defs>
	<clipPath id="SVGID_29_">
		<use xlink:href="#SVGID_28_"  overflow="visible"/>
	</clipPath>
	
		<linearGradient id="SVGID_30_" gradientUnits="userSpaceOnUse" x1="0" y1="166.4731" x2="1" y2="166.4731" gradientTransform="matrix(127.1126 0 0 -127.1126 312.8125 21262.8125)">
		<stop  offset="0" style="stop-color:#C6E9FA"/>
		<stop  offset="0.2936" style="stop-color:#C8E6F8"/>
		<stop  offset="0.5297" style="stop-color:#D0DCF0"/>
		<stop  offset="0.7459" style="stop-color:#DDCBE3"/>
		<stop  offset="0.949" style="stop-color:#EFB3D1"/>
		<stop  offset="1" style="stop-color:#F5ACCC"/>
	</linearGradient>
	<rect x="308.473" y="37.611" clip-path="url(#SVGID_29_)" fill="url(#SVGID_30_)" width="133.695" height="128.861"/>
</g>
<g>
	<defs>
		<rect id="SVGID_31_" width="1024.996" height="166.472"/>
	</defs>
	<clipPath id="SVGID_32_">
		<use xlink:href="#SVGID_31_"  overflow="visible"/>
	</clipPath>
	<path clip-path="url(#SVGID_32_)" fill="#ECB3CB" d="M576.24,134.399c7.054,7.054,7.054,18.49,0,25.544l-0.484,0.485
		c-7.054,7.054-18.492,7.054-25.545,0c-7.054-7.055-7.054-18.491,0-25.545l0.484-0.484c3.525-3.527,8.148-5.291,12.772-5.291
		C568.09,129.108,572.713,130.872,576.24,134.399"/>
</g>
<g>
	<defs>
		<path id="SVGID_33_" d="M693.081,0.001c-4.565,0.043-9.116,1.807-12.6,5.29l-90.927,90.927c-7.054,7.054-7.054,18.49,0,25.545
			c7.055,7.054,18.489,7.054,25.545,0l90.928-90.927c7.053-7.054,7.053-18.491,0-25.545c-3.484-3.483-8.035-5.247-12.602-5.29
			H693.081z"/>
	</defs>
	<clipPath id="SVGID_34_">
		<use xlink:href="#SVGID_33_"  overflow="visible"/>
	</clipPath>
	
		<linearGradient id="SVGID_35_" gradientUnits="userSpaceOnUse" x1="0" y1="166.479" x2="1" y2="166.479" gradientTransform="matrix(-125.3293 0 0 125.3293 710.0625 -20800.3008)">
		<stop  offset="0" style="stop-color:#C6E9FA"/>
		<stop  offset="0.2936" style="stop-color:#C8E6F8"/>
		<stop  offset="0.5297" style="stop-color:#D0DCF0"/>
		<stop  offset="0.7459" style="stop-color:#DDCBE3"/>
		<stop  offset="0.949" style="stop-color:#EFB3D1"/>
		<stop  offset="1" style="stop-color:#F5ACCC"/>
	</linearGradient>
	<rect x="582.501" y="0.001" clip-path="url(#SVGID_34_)" fill="url(#SVGID_35_)" width="130.579" height="128.816"/>
</g>
<g>
	<defs>
		<rect id="SVGID_36_" width="1024.996" height="166.472"/>
	</defs>
	<clipPath id="SVGID_37_">
		<use xlink:href="#SVGID_36_"  overflow="visible"/>
	</clipPath>
	<path clip-path="url(#SVGID_37_)" fill="#ECB3CB" d="M602.394,32.074c-7.054-7.054-7.054-18.491,0-25.545l0.484-0.484
		c7.054-7.054,18.491-7.054,25.545,0c7.054,7.053,7.054,18.49,0,25.545l-0.484,0.484c-3.527,3.527-8.149,5.29-12.772,5.29
		S605.921,35.601,602.394,32.074"/>
</g>
<g>
	<defs>
		<path id="SVGID_38_" d="M565.342,42.902l-94.043,94.042c-7.054,7.055-3.938,15.376,3.116,22.431
			c4.249,4.249,8.957,7.068,13.572,7.098h0.148c2.996-0.02,5.95-1.223,8.71-3.983l94.042-94.042c7.054-7.054,7.054-18.491,0-25.545
			c-3.526-3.528-8.149-5.291-12.772-5.291S568.869,39.374,565.342,42.902"/>
	</defs>
	<clipPath id="SVGID_39_">
		<use xlink:href="#SVGID_38_"  overflow="visible"/>
	</clipPath>
	
		<linearGradient id="SVGID_40_" gradientUnits="userSpaceOnUse" x1="0" y1="166.4731" x2="1" y2="166.4731" gradientTransform="matrix(127.1126 0 0 -127.1126 468.5625 21262.8125)">
		<stop  offset="0" style="stop-color:#C6E9FA"/>
		<stop  offset="0.2936" style="stop-color:#C8E6F8"/>
		<stop  offset="0.5297" style="stop-color:#D0DCF0"/>
		<stop  offset="0.7459" style="stop-color:#DDCBE3"/>
		<stop  offset="0.949" style="stop-color:#EFB3D1"/>
		<stop  offset="1" style="stop-color:#F5ACCC"/>
	</linearGradient>
	<rect x="464.245" y="37.611" clip-path="url(#SVGID_39_)" fill="url(#SVGID_40_)" width="133.695" height="128.861"/>
</g>
<g>
	<defs>
		<rect id="SVGID_41_" width="1024.996" height="166.472"/>
	</defs>
	<clipPath id="SVGID_42_">
		<use xlink:href="#SVGID_41_"  overflow="visible"/>
	</clipPath>
	<path clip-path="url(#SVGID_42_)" fill="#ECB3CB" d="M732.012,134.399c7.055,7.054,7.055,18.49,0,25.544l-0.483,0.485
		c-7.054,7.054-18.491,7.054-25.545,0c-7.055-7.055-7.055-18.491,0-25.545l0.483-0.484c3.527-3.527,8.15-5.291,12.772-5.291
		C723.862,129.108,728.484,130.872,732.012,134.399"/>
</g>
<g>
	<defs>
		<path id="SVGID_43_" d="M848.854,0.001c-4.564,0.043-9.116,1.807-12.6,5.29l-90.927,90.927c-7.054,7.054-7.054,18.49,0,25.545
			c7.054,7.054,18.49,7.054,25.545,0l90.927-90.927c7.055-7.054,7.055-18.491,0-25.545c-3.483-3.483-8.035-5.247-12.6-5.29H848.854z
			"/>
	</defs>
	<clipPath id="SVGID_44_">
		<use xlink:href="#SVGID_43_"  overflow="visible"/>
	</clipPath>
	
		<linearGradient id="SVGID_45_" gradientUnits="userSpaceOnUse" x1="0" y1="166.479" x2="1" y2="166.479" gradientTransform="matrix(-125.3293 0 0 125.3293 865.875 -20800.3008)">
		<stop  offset="0" style="stop-color:#C6E9FA"/>
		<stop  offset="0.2936" style="stop-color:#C8E6F8"/>
		<stop  offset="0.5297" style="stop-color:#D0DCF0"/>
		<stop  offset="0.7459" style="stop-color:#DDCBE3"/>
		<stop  offset="0.949" style="stop-color:#EFB3D1"/>
		<stop  offset="1" style="stop-color:#F5ACCC"/>
	</linearGradient>
	<rect x="738.273" y="0.001" clip-path="url(#SVGID_44_)" fill="url(#SVGID_45_)" width="130.58" height="128.816"/>
</g>
<g>
	<defs>
		<rect id="SVGID_46_" width="1024.996" height="166.472"/>
	</defs>
	<clipPath id="SVGID_47_">
		<use xlink:href="#SVGID_46_"  overflow="visible"/>
	</clipPath>
	<path clip-path="url(#SVGID_47_)" fill="#ECB3CB" d="M758.166,32.074c-7.055-7.054-7.055-18.491,0-25.545l0.483-0.484
		c7.054-7.054,18.491-7.054,25.545,0c7.055,7.053,7.055,18.49,0,25.545l-0.483,0.484c-3.527,3.527-8.15,5.29-12.773,5.29
		C766.315,37.364,761.693,35.601,758.166,32.074"/>
</g>
<g>
	<defs>
		<path id="SVGID_48_" d="M721.114,42.902l-94.042,94.042c-7.056,7.055-3.939,15.376,3.115,22.431
			c4.248,4.249,8.956,7.068,13.571,7.098h0.148c2.996-0.02,5.95-1.223,8.709-3.983l94.043-94.042c7.054-7.054,7.054-18.491,0-25.545
			c-3.527-3.528-8.15-5.291-12.772-5.291C729.264,37.611,724.641,39.374,721.114,42.902"/>
	</defs>
	<clipPath id="SVGID_49_">
		<use xlink:href="#SVGID_48_"  overflow="visible"/>
	</clipPath>
	
		<linearGradient id="SVGID_50_" gradientUnits="userSpaceOnUse" x1="0" y1="166.4731" x2="1" y2="166.4731" gradientTransform="matrix(127.1126 0 0 -127.1126 624.3125 21262.8125)">
		<stop  offset="0" style="stop-color:#C6E9FA"/>
		<stop  offset="0.2936" style="stop-color:#C8E6F8"/>
		<stop  offset="0.5297" style="stop-color:#D0DCF0"/>
		<stop  offset="0.7459" style="stop-color:#DDCBE3"/>
		<stop  offset="0.949" style="stop-color:#EFB3D1"/>
		<stop  offset="1" style="stop-color:#F5ACCC"/>
	</linearGradient>
	<rect x="620.017" y="37.611" clip-path="url(#SVGID_49_)" fill="url(#SVGID_50_)" width="133.696" height="128.861"/>
</g>
<g>
	<defs>
		<rect id="SVGID_51_" width="1024.996" height="166.472"/>
	</defs>
	<clipPath id="SVGID_52_">
		<use xlink:href="#SVGID_51_"  overflow="visible"/>
	</clipPath>
	<path clip-path="url(#SVGID_52_)" fill="#ECB3CB" d="M889.919,134.399c7.055,7.054,7.055,18.49,0,25.544l-0.483,0.485
		c-7.054,7.054-18.492,7.054-25.545,0c-7.055-7.055-7.055-18.491,0-25.545l0.483-0.484c3.526-3.527,8.149-5.291,12.772-5.291
		S886.392,130.872,889.919,134.399"/>
</g>
<g>
	<defs>
		<path id="SVGID_53_" d="M1006.761,0.001c-4.565,0.043-9.116,1.807-12.6,5.29l-90.926,90.927c-7.056,7.054-7.056,18.49,0,25.545
			c7.053,7.054,18.488,7.054,25.544,0l90.927-90.927c7.054-7.054,7.054-18.491,0-25.545c-3.484-3.483-8.034-5.247-12.6-5.29
			H1006.761z"/>
	</defs>
	<clipPath id="SVGID_54_">
		<use xlink:href="#SVGID_53_"  overflow="visible"/>
	</clipPath>
	
		<linearGradient id="SVGID_55_" gradientUnits="userSpaceOnUse" x1="0" y1="166.479" x2="1" y2="166.479" gradientTransform="matrix(-125.3293 0 0 125.3293 1023.75 -20800.3008)">
		<stop  offset="0" style="stop-color:#C6E9FA"/>
		<stop  offset="0.2936" style="stop-color:#C8E6F8"/>
		<stop  offset="0.5297" style="stop-color:#D0DCF0"/>
		<stop  offset="0.7459" style="stop-color:#DDCBE3"/>
		<stop  offset="0.949" style="stop-color:#EFB3D1"/>
		<stop  offset="1" style="stop-color:#F5ACCC"/>
	</linearGradient>
	<rect x="896.18" y="0.001" clip-path="url(#SVGID_54_)" fill="url(#SVGID_55_)" width="130.58" height="128.816"/>
</g>
<g>
	<defs>
		<rect id="SVGID_56_" width="1024.996" height="166.472"/>
	</defs>
	<clipPath id="SVGID_57_">
		<use xlink:href="#SVGID_56_"  overflow="visible"/>
	</clipPath>
	<path clip-path="url(#SVGID_57_)" fill="#ECB3CB" d="M916.073,32.074c-7.055-7.054-7.055-18.491,0-25.545l0.483-0.484
		c7.054-7.054,18.491-7.054,25.545,0c7.055,7.053,7.055,18.49,0,25.545l-0.483,0.484c-3.527,3.527-8.15,5.29-12.773,5.29
		C924.223,37.364,919.601,35.601,916.073,32.074"/>
</g>
<g>
	<defs>
		<path id="SVGID_58_" d="M879.021,42.902l-94.043,94.042c-7.054,7.055-3.938,15.376,3.116,22.431
			c4.249,4.249,8.956,7.068,13.571,7.098h0.148c2.995-0.02,5.949-1.223,8.71-3.983l94.043-94.042c7.053-7.054,7.053-18.491,0-25.545
			c-3.528-3.528-8.15-5.291-12.773-5.291C887.17,37.611,882.549,39.374,879.021,42.902"/>
	</defs>
	<clipPath id="SVGID_59_">
		<use xlink:href="#SVGID_58_"  overflow="visible"/>
	</clipPath>
	
		<linearGradient id="SVGID_60_" gradientUnits="userSpaceOnUse" x1="0" y1="166.4731" x2="1" y2="166.4731" gradientTransform="matrix(127.1126 0 0 -127.1126 782.25 21262.8125)">
		<stop  offset="0" style="stop-color:#C6E9FA"/>
		<stop  offset="0.2936" style="stop-color:#C8E6F8"/>
		<stop  offset="0.5297" style="stop-color:#D0DCF0"/>
		<stop  offset="0.7459" style="stop-color:#DDCBE3"/>
		<stop  offset="0.949" style="stop-color:#EFB3D1"/>
		<stop  offset="1" style="stop-color:#F5ACCC"/>
	</linearGradient>
	<rect x="777.925" y="37.611" clip-path="url(#SVGID_59_)" fill="url(#SVGID_60_)" width="133.695" height="128.861"/>
</g>
</svg>
