<?xml version="1.0" encoding="utf-8"?>
<!-- Generator: Adobe Illustrator 16.0.0, SVG Export Plug-In . SVG Version: 6.00 Build 0)  -->
<!DOCTYPE svg PUBLIC "-//W3C//DTD SVG 1.1//EN" "http://www.w3.org/Graphics/SVG/1.1/DTD/svg11.dtd">
<svg version="1.1" id="Layer_1" xmlns="http://www.w3.org/2000/svg" xmlns:xlink="http://www.w3.org/1999/xlink" x="0px" y="0px"
	 width="245.764px" height="166.472px" viewBox="0 0 245.764 166.472" enable-background="new 0 0 245.764 166.472"
	 xml:space="preserve">
<g>
	<defs>
		<rect id="SVGID_1_" width="1024.996" height="166.472"/>
	</defs>
	<clipPath id="SVGID_2_">
		<use xlink:href="#SVGID_1_"  overflow="visible"/>
	</clipPath>
	<path clip-path="url(#SVGID_2_)" fill="#ECB3CB" d="M108.923,134.399c7.055,7.054,7.055,18.49,0,25.544l-0.483,0.485
		c-7.054,7.054-18.492,7.054-25.545,0c-7.055-7.055-7.055-18.491,0-25.545l0.483-0.484c3.527-3.527,8.15-5.291,12.773-5.291
		S105.396,130.872,108.923,134.399"/>
</g>
<g>
	<defs>
		<path id="SVGID_3_" d="M225.765,0.001c-4.565,0.043-9.117,1.807-12.6,5.29l-90.927,90.927c-7.054,7.054-7.054,18.49,0,25.545
			c7.054,7.054,18.491,7.054,25.546,0l90.926-90.927c7.054-7.054,7.054-18.491,0-25.545c-3.483-3.483-8.035-5.247-12.6-5.29H225.765
			z"/>
	</defs>
	<clipPath id="SVGID_4_">
		<use xlink:href="#SVGID_3_"  overflow="visible"/>
	</clipPath>
	
		<linearGradient id="SVGID_5_" gradientUnits="userSpaceOnUse" x1="0" y1="166.479" x2="1" y2="166.479" gradientTransform="matrix(-125.3293 0 0 125.3293 242.75 -20800.3008)">
		<stop  offset="0" style="stop-color:#C6E9FA"/>
		<stop  offset="0.2936" style="stop-color:#C8E6F8"/>
		<stop  offset="0.5297" style="stop-color:#D0DCF0"/>
		<stop  offset="0.7459" style="stop-color:#DDCBE3"/>
		<stop  offset="0.949" style="stop-color:#EFB3D1"/>
		<stop  offset="1" style="stop-color:#F5ACCC"/>
	</linearGradient>
	<rect x="115.184" y="0.001" clip-path="url(#SVGID_4_)" fill="url(#SVGID_5_)" width="130.58" height="128.816"/>
</g>
<g>
	<defs>
		<rect id="SVGID_6_" width="1024.996" height="166.472"/>
	</defs>
	<clipPath id="SVGID_7_">
		<use xlink:href="#SVGID_6_"  overflow="visible"/>
	</clipPath>
	<path clip-path="url(#SVGID_7_)" fill="#ECB3CB" d="M135.077,32.074c-7.055-7.054-7.055-18.491,0-25.545l0.483-0.484
		c7.054-7.054,18.492-7.054,25.545,0c7.055,7.053,7.055,18.49,0,25.545l-0.483,0.484c-3.527,3.527-8.15,5.29-12.773,5.29
		S138.604,35.601,135.077,32.074"/>
</g>
<g>
	<defs>
		<path id="SVGID_8_" d="M98.025,42.902L3.982,136.944c-2.751,2.752-3.955,5.697-3.982,8.685v0.201
			c0.04,4.605,2.858,9.304,7.098,13.545c4.249,4.249,8.957,7.068,13.572,7.098h0.148c2.996-0.02,5.95-1.223,8.71-3.983
			l94.042-94.042c7.054-7.054,7.054-18.491,0-25.545c-3.527-3.528-8.149-5.291-12.772-5.291S101.552,39.374,98.025,42.902"/>
	</defs>
	<clipPath id="SVGID_9_">
		<use xlink:href="#SVGID_8_"  overflow="visible"/>
	</clipPath>
	
		<linearGradient id="SVGID_10_" gradientUnits="userSpaceOnUse" x1="0" y1="166.4731" x2="1" y2="166.4731" gradientTransform="matrix(127.1126 0 0 -127.1126 1.25 21262.8125)">
		<stop  offset="0" style="stop-color:#C6E9FA"/>
		<stop  offset="0.2936" style="stop-color:#C8E6F8"/>
		<stop  offset="0.5297" style="stop-color:#D0DCF0"/>
		<stop  offset="0.7459" style="stop-color:#DDCBE3"/>
		<stop  offset="0.949" style="stop-color:#EFB3D1"/>
		<stop  offset="1" style="stop-color:#F5ACCC"/>
	</linearGradient>
	<rect y="37.611" clip-path="url(#SVGID_9_)" fill="url(#SVGID_10_)" width="130.624" height="128.861"/>
</g>
<g>
	<defs>
		<rect id="SVGID_11_" width="1024.996" height="166.472"/>
	</defs>
	<clipPath id="SVGID_12_">
		<use xlink:href="#SVGID_11_"  overflow="visible"/>
	</clipPath>
</g>
<g>
	<defs>
		<path id="SVGID_13_" d="M381.537,0.001c-4.565,0.043-9.117,1.807-12.599,5.29L278.01,96.218c-7.054,7.054-7.054,18.49,0,25.545
			c7.054,7.054,18.491,7.054,25.545,0l90.928-90.927c7.053-7.054,7.053-18.491,0-25.545c-3.484-3.483-8.036-5.247-12.601-5.29
			H381.537z"/>
	</defs>
	<clipPath id="SVGID_14_">
		<use xlink:href="#SVGID_13_"  overflow="visible"/>
	</clipPath>
</g>
<g>
	<defs>
		<rect id="SVGID_15_" width="1024.996" height="166.472"/>
	</defs>
	<clipPath id="SVGID_16_">
		<use xlink:href="#SVGID_15_"  overflow="visible"/>
	</clipPath>
</g>
<g>
	<defs>
		<path id="SVGID_17_" d="M537.309,0.001c-4.564,0.043-9.116,1.807-12.6,5.29l-90.927,90.927c-7.053,7.054-7.053,18.49,0,25.545
			c7.055,7.054,18.49,7.054,25.545,0l90.927-90.927c7.054-7.054,7.054-18.491,0-25.545c-3.482-3.483-8.035-5.247-12.6-5.29H537.309z
			"/>
	</defs>
	<clipPath id="SVGID_18_">
		<use xlink:href="#SVGID_17_"  overflow="visible"/>
	</clipPath>
</g>
<g>
	<defs>
		<rect id="SVGID_19_" width="1024.996" height="166.472"/>
	</defs>
	<clipPath id="SVGID_20_">
		<use xlink:href="#SVGID_19_"  overflow="visible"/>
	</clipPath>
</g>
<g>
	<defs>
		<path id="SVGID_21_" d="M409.569,42.902l-94.042,94.042c-7.054,7.055-3.938,15.376,3.115,22.431
			c4.25,4.249,8.958,7.068,13.573,7.098h0.147c2.996-0.02,5.95-1.223,8.71-3.983l94.042-94.042c7.054-7.054,7.054-18.491,0-25.545
			c-3.527-3.528-8.149-5.291-12.772-5.291S413.096,39.374,409.569,42.902"/>
	</defs>
	<clipPath id="SVGID_22_">
		<use xlink:href="#SVGID_21_"  overflow="visible"/>
	</clipPath>
</g>
<g>
	<defs>
		<rect id="SVGID_23_" width="1024.996" height="166.472"/>
	</defs>
	<clipPath id="SVGID_24_">
		<use xlink:href="#SVGID_23_"  overflow="visible"/>
	</clipPath>
</g>
<g>
	<defs>
		<path id="SVGID_25_" d="M693.081,0.001c-4.565,0.043-9.116,1.807-12.6,5.29l-90.927,90.927c-7.054,7.054-7.054,18.49,0,25.545
			c7.055,7.054,18.489,7.054,25.545,0l90.928-90.927c7.053-7.054,7.053-18.491,0-25.545c-3.484-3.483-8.035-5.247-12.602-5.29
			H693.081z"/>
	</defs>
	<clipPath id="SVGID_26_">
		<use xlink:href="#SVGID_25_"  overflow="visible"/>
	</clipPath>
</g>
<g>
	<defs>
		<rect id="SVGID_27_" width="1024.996" height="166.472"/>
	</defs>
	<clipPath id="SVGID_28_">
		<use xlink:href="#SVGID_27_"  overflow="visible"/>
	</clipPath>
</g>
<g>
	<defs>
		<path id="SVGID_29_" d="M565.342,42.902l-94.043,94.042c-7.054,7.055-3.938,15.376,3.116,22.431
			c4.249,4.249,8.957,7.068,13.572,7.098h0.148c2.996-0.02,5.95-1.223,8.71-3.983l94.042-94.042c7.054-7.054,7.054-18.491,0-25.545
			c-3.526-3.528-8.149-5.291-12.772-5.291S568.869,39.374,565.342,42.902"/>
	</defs>
	<clipPath id="SVGID_30_">
		<use xlink:href="#SVGID_29_"  overflow="visible"/>
	</clipPath>
</g>
<g>
	<defs>
		<rect id="SVGID_31_" width="1024.996" height="166.472"/>
	</defs>
	<clipPath id="SVGID_32_">
		<use xlink:href="#SVGID_31_"  overflow="visible"/>
	</clipPath>
</g>
<g>
	<defs>
		<path id="SVGID_33_" d="M745.327,96.218c-7.054,7.054-7.054,18.49,0,25.545c7.054,7.054,18.49,7.054,25.545,0l90.927-90.927
			c7.055-7.054,7.055-18.491,0-25.545c-3.483-3.483-8.035-5.247-12.6-5.29h-0.346c-4.564,0.043-9.116,1.807-12.6,5.29"/>
	</defs>
	<clipPath id="SVGID_34_">
		<use xlink:href="#SVGID_33_"  overflow="visible"/>
	</clipPath>
</g>
<g>
	<defs>
		<rect id="SVGID_35_" width="1024.996" height="166.472"/>
	</defs>
	<clipPath id="SVGID_36_">
		<use xlink:href="#SVGID_35_"  overflow="visible"/>
	</clipPath>
</g>
<g>
	<defs>
		<path id="SVGID_37_" d="M721.114,42.902l-94.042,94.042c-7.056,7.055-3.939,15.376,3.115,22.431
			c4.248,4.249,8.956,7.068,13.571,7.098h0.148c2.996-0.02,5.95-1.223,8.709-3.983l94.043-94.042c7.054-7.054,7.054-18.491,0-25.545
			c-3.527-3.528-8.15-5.291-12.772-5.291C729.264,37.611,724.641,39.374,721.114,42.902"/>
	</defs>
	<clipPath id="SVGID_38_">
		<use xlink:href="#SVGID_37_"  overflow="visible"/>
	</clipPath>
</g>
<g>
	<defs>
		<rect id="SVGID_39_" width="1024.996" height="166.472"/>
	</defs>
	<clipPath id="SVGID_40_">
		<use xlink:href="#SVGID_39_"  overflow="visible"/>
	</clipPath>
</g>
<g>
	<defs>
		<path id="SVGID_41_" d="M1006.761,0.001c-4.565,0.043-9.116,1.807-12.6,5.29l-90.926,90.927c-7.056,7.054-7.056,18.49,0,25.545
			c7.053,7.054,18.488,7.054,25.544,0l90.927-90.927c7.054-7.054,7.054-18.491,0-25.545c-3.484-3.483-8.034-5.247-12.6-5.29
			H1006.761z"/>
	</defs>
	<clipPath id="SVGID_42_">
		<use xlink:href="#SVGID_41_"  overflow="visible"/>
	</clipPath>
</g>
<g>
	<defs>
		<rect id="SVGID_43_" width="1024.996" height="166.472"/>
	</defs>
	<clipPath id="SVGID_44_">
		<use xlink:href="#SVGID_43_"  overflow="visible"/>
	</clipPath>
</g>
<g>
	<defs>
		<path id="SVGID_45_" d="M904.567,68.447c7.053-7.054,7.053-18.491,0-25.545c-3.528-3.528-8.15-5.291-12.773-5.291
			c-4.624,0-9.245,1.763-12.772,5.291"/>
	</defs>
	<defs>
		<path id="SVGID_46_" d="M879.021,42.902l-94.043,94.042c-7.054,7.055-3.938,15.376,3.116,22.431
			c4.249,4.249,8.956,7.068,13.571,7.098h0.148c2.995-0.02,5.949-1.223,8.71-3.983"/>
	</defs>
	<clipPath id="SVGID_47_">
		<use xlink:href="#SVGID_45_"  overflow="visible"/>
	</clipPath>
	<clipPath id="SVGID_48_" clip-path="url(#SVGID_47_)">
		<use xlink:href="#SVGID_46_"  overflow="visible"/>
	</clipPath>
	
		<linearGradient id="SVGID_49_" gradientUnits="userSpaceOnUse" x1="0" y1="166.4731" x2="1" y2="166.4731" gradientTransform="matrix(127.1126 0 0 -127.1126 782.25 21262.8125)">
		<stop  offset="0" style="stop-color:#C6E9FA"/>
		<stop  offset="0.2936" style="stop-color:#C8E6F8"/>
		<stop  offset="0.5297" style="stop-color:#D0DCF0"/>
		<stop  offset="0.7459" style="stop-color:#DDCBE3"/>
		<stop  offset="0.949" style="stop-color:#EFB3D1"/>
		<stop  offset="1" style="stop-color:#F5ACCC"/>
	</linearGradient>
	<rect x="777.925" y="37.611" clip-path="url(#SVGID_48_)" fill="url(#SVGID_49_)" width="133.695" height="128.861"/>
</g>
</svg>
