<?xml version="1.0" encoding="utf-8"?>
<!-- Generator: Adobe Illustrator 16.0.0, SVG Export Plug-In . SVG Version: 6.00 Build 0)  -->
<!DOCTYPE svg PUBLIC "-//W3C//DTD SVG 1.1//EN" "http://www.w3.org/Graphics/SVG/1.1/DTD/svg11.dtd">
<svg version="1.1" id="Layer_1" xmlns="http://www.w3.org/2000/svg" xmlns:xlink="http://www.w3.org/1999/xlink" x="0px" y="0px"
	 width="393.834px" height="380.385px" viewBox="0 0 393.834 380.385" enable-background="new 0 0 393.834 380.385"
	 xml:space="preserve">
<g>
	<defs>
		<rect id="SVGID_1_" width="393.834" height="380.385"/>
	</defs>
	<clipPath id="SVGID_2_">
		<use xlink:href="#SVGID_1_"  overflow="visible"/>
	</clipPath>
	<path clip-path="url(#SVGID_2_)" fill="#ECB3CB" d="M172.77,165.963c12.247-12.248,32.104-12.248,44.354,0l0.84,0.84
		c12.248,12.247,12.248,32.106,0,44.354c-12.247,12.248-32.104,12.248-44.353,0l-0.841-0.84c-6.124-6.124-9.186-14.15-9.186-22.177
		C163.583,180.113,166.646,172.087,172.77,165.963"/>
	<path clip-path="url(#SVGID_2_)" fill="#ECB3CB" d="M9.186,264.078c12.247-12.248,32.104-12.248,44.354,0l0.839,0.84
		c12.249,12.247,12.249,32.106,0,44.354c-12.247,12.248-32.104,12.248-44.352,0l-0.841-0.84C3.062,302.308,0,294.281,0,286.254
		C0,278.229,3.062,270.202,9.186,264.078"/>
	<path clip-path="url(#SVGID_2_)" fill="#ECB3CB" d="M339.454,69.662c12.247-12.248,32.104-12.248,44.353,0l0.841,0.841
		c12.248,12.247,12.248,32.105,0,44.353c-12.247,12.247-32.104,12.247-44.353,0l-0.841-0.84c-6.124-6.125-9.186-14.151-9.186-22.177
		C330.269,83.812,333.33,75.787,339.454,69.662"/>
</g>
<g>
	<defs>
		<path id="SVGID_3_" d="M37.595,0c-8.026,0-16.053,3.062-22.176,9.185c-12.248,12.248-12.248,32.105,0,44.353l90.541,90.541
			c12.247,12.247,32.104,12.247,44.353,0c6.123-6.124,9.185-14.15,9.185-22.177s-3.062-16.052-9.185-22.176L59.773,9.185
			C53.648,3.062,45.621,0,37.595,0z"/>
	</defs>
	<clipPath id="SVGID_4_">
		<use xlink:href="#SVGID_3_"  overflow="visible"/>
	</clipPath>
	
		<linearGradient id="SVGID_5_" gradientUnits="userSpaceOnUse" x1="0" y1="380.3711" x2="1" y2="380.3711" gradientTransform="matrix(133.0638 133.0638 133.0638 -133.0638 -50598.6836 50625.9219)">
		<stop  offset="0" style="stop-color:#C6E9FA"/>
		<stop  offset="0.2936" style="stop-color:#C8E6F8"/>
		<stop  offset="0.5297" style="stop-color:#D0DCF0"/>
		<stop  offset="0.7459" style="stop-color:#DDCBE3"/>
		<stop  offset="0.949" style="stop-color:#EFB3D1"/>
		<stop  offset="1" style="stop-color:#F5ACCC"/>
	</linearGradient>
	<polygon clip-path="url(#SVGID_4_)" fill="url(#SVGID_5_)" points="81.334,-78.164 237.661,78.163 81.334,234.489 -74.992,78.163 	
		"/>
</g>
<g>
	<defs>
		<path id="SVGID_6_" d="M152.963,10.436c-12.248,12.249-12.248,32.105,0,44.354l183.871,183.872
			c12.247,12.247,32.105,12.247,44.354,0c6.123-6.124,9.186-14.15,9.186-22.178c0-8.026-3.063-16.052-9.186-22.176L197.316,10.436
			c-6.125-6.123-14.151-9.185-22.177-9.185C167.113,1.251,159.087,4.313,152.963,10.436"/>
	</defs>
	<clipPath id="SVGID_7_">
		<use xlink:href="#SVGID_6_"  overflow="visible"/>
	</clipPath>
	
		<linearGradient id="SVGID_8_" gradientUnits="userSpaceOnUse" x1="0" y1="380.3916" x2="1" y2="380.3916" gradientTransform="matrix(-222.4072 -222.4072 -222.4072 222.4072 84976.0781 -84367.0391)">
		<stop  offset="0" style="stop-color:#F5ACCC"/>
		<stop  offset="0.051" style="stop-color:#EFB3D1"/>
		<stop  offset="0.2541" style="stop-color:#DDCBE3"/>
		<stop  offset="0.4703" style="stop-color:#D0DCF0"/>
		<stop  offset="0.7064" style="stop-color:#C8E6F8"/>
		<stop  offset="1" style="stop-color:#C6E9FA"/>
	</linearGradient>
	<polygon clip-path="url(#SVGID_7_)" fill="url(#SVGID_8_)" points="265.544,375.736 15.887,126.079 265.544,-123.578 
		515.201,126.079 	"/>
</g>
<g>
	<defs>
		<path id="SVGID_9_" d="M240.061,231.517c-12.249,12.248-12.249,32.105,0,44.354l90.541,90.541
			c12.247,12.247,32.104,12.247,44.353,0c6.124-6.125,9.186-14.15,9.186-22.178c0-8.025-3.062-16.053-9.186-22.176l-90.54-90.541
			c-6.124-6.124-14.151-9.185-22.177-9.185C254.21,222.332,246.184,225.393,240.061,231.517"/>
	</defs>
	<clipPath id="SVGID_10_">
		<use xlink:href="#SVGID_9_"  overflow="visible"/>
	</clipPath>
	
		<linearGradient id="SVGID_11_" gradientUnits="userSpaceOnUse" x1="0" y1="380.3965" x2="1" y2="380.3965" gradientTransform="matrix(-133.0638 -133.0638 -133.0638 133.0638 50989.1836 -50250.3281)">
		<stop  offset="0" style="stop-color:#C6E9FA"/>
		<stop  offset="0.2936" style="stop-color:#C8E6F8"/>
		<stop  offset="0.5297" style="stop-color:#D0DCF0"/>
		<stop  offset="0.7459" style="stop-color:#DDCBE3"/>
		<stop  offset="0.949" style="stop-color:#EFB3D1"/>
		<stop  offset="1" style="stop-color:#F5ACCC"/>
	</linearGradient>
	<polygon clip-path="url(#SVGID_10_)" fill="url(#SVGID_11_)" points="305.976,456.822 149.649,300.495 305.976,144.168 
		462.303,300.495 	"/>
</g>
<g>
	<defs>
		<path id="SVGID_12_" d="M9.185,136.935C3.062,143.059,0,151.084,0,159.111s3.062,16.052,9.185,22.177l189.912,189.912
			c12.249,12.247,32.106,12.247,44.354,0c12.248-12.248,12.248-32.104,0-44.354L53.539,136.935
			c-6.123-6.124-14.15-9.186-22.176-9.186C23.337,127.749,15.31,130.811,9.185,136.935"/>
	</defs>
	<clipPath id="SVGID_13_">
		<use xlink:href="#SVGID_12_"  overflow="visible"/>
	</clipPath>
	
		<linearGradient id="SVGID_14_" gradientUnits="userSpaceOnUse" x1="0" y1="380.3848" x2="1" y2="380.3848" gradientTransform="matrix(-228.2938 -228.2938 -228.2938 228.2938 87077.4922 -86473.8047)">
		<stop  offset="0" style="stop-color:#F5ACCC"/>
		<stop  offset="0.051" style="stop-color:#EFB3D1"/>
		<stop  offset="0.2541" style="stop-color:#DDCBE3"/>
		<stop  offset="0.4703" style="stop-color:#D0DCF0"/>
		<stop  offset="0.7064" style="stop-color:#C8E6F8"/>
		<stop  offset="1" style="stop-color:#C6E9FA"/>
	</linearGradient>
	<polygon clip-path="url(#SVGID_13_)" fill="url(#SVGID_14_)" points="127.849,511.296 -127.849,255.598 127.849,-0.1 
		383.547,255.598 	"/>
</g>
</svg>
